<svg width="77" height="35" viewBox="0 0 77 35" fill="none" xmlns="http://www.w3.org/2000/svg">
<path d="M0.888 16V1.048H5.448C6.344 1.048 7.12 1.144 7.776 1.336C8.432 1.512 8.976 1.768 9.408 2.104C9.856 2.424 10.184 2.816 10.392 3.28C10.616 3.744 10.728 4.256 10.728 4.816C10.728 5.232 10.648 5.656 10.488 6.088C10.328 6.52 10.088 6.912 9.768 7.264C9.448 7.6 9.064 7.864 8.616 8.056C9.016 8.232 9.384 8.448 9.72 8.704C10.056 8.96 10.344 9.248 10.584 9.568C10.824 9.872 11 10.208 11.112 10.576C11.24 10.928 11.304 11.296 11.304 11.68C11.304 12.32 11.184 12.912 10.944 13.456C10.704 13.984 10.336 14.44 9.84 14.824C9.36 15.192 8.752 15.48 8.016 15.688C7.28 15.896 6.416 16 5.424 16H0.888ZM3.6 13.768H5.712C6.288 13.768 6.784 13.688 7.2 13.528C7.616 13.352 7.936 13.104 8.16 12.784C8.384 12.464 8.496 12.072 8.496 11.608C8.496 11.128 8.392 10.712 8.184 10.36C7.976 9.992 7.64 9.704 7.176 9.496C6.712 9.288 6.088 9.184 5.304 9.184H3.6V13.768ZM3.6 7.024H5.232C5.936 7.024 6.488 6.944 6.888 6.784C7.288 6.608 7.568 6.376 7.728 6.088C7.904 5.784 7.992 5.44 7.992 5.056C7.992 4.784 7.944 4.536 7.848 4.312C7.752 4.088 7.6 3.904 7.392 3.76C7.2 3.6 6.944 3.472 6.624 3.376C6.304 3.28 5.92 3.232 5.472 3.232H3.6V7.024ZM21.808 12.52H15.952L16.336 10.576H21.352L21.808 12.52ZM19 5.968L15.976 16H13.288L18.352 0.951999H19.648L24.712 16H21.976L19 5.968ZM27.08 16V1.048H31.808C33.04 1.048 34.04 1.232 34.808 1.6C35.592 1.952 36.168 2.464 36.536 3.136C36.904 3.792 37.088 4.56 37.088 5.44C37.088 5.984 36.968 6.528 36.728 7.072C36.504 7.616 36.184 8.104 35.768 8.536C35.352 8.968 34.856 9.296 34.28 9.52L37.496 16H34.64L31.616 9.784H29.816V16H27.08ZM29.816 7.528H32C32.768 7.528 33.344 7.352 33.728 7C34.112 6.632 34.304 6.136 34.304 5.512C34.304 5.112 34.216 4.76 34.04 4.456C33.88 4.136 33.624 3.88 33.272 3.688C32.936 3.496 32.512 3.4 32 3.4H29.816V7.528ZM39.888 16V1.048H44.448C45.344 1.048 46.12 1.144 46.776 1.336C47.432 1.512 47.976 1.768 48.408 2.104C48.856 2.424 49.184 2.816 49.392 3.28C49.616 3.744 49.728 4.256 49.728 4.816C49.728 5.232 49.648 5.656 49.488 6.088C49.328 6.52 49.088 6.912 48.768 7.264C48.448 7.6 48.064 7.864 47.616 8.056C48.016 8.232 48.384 8.448 48.72 8.704C49.056 8.96 49.344 9.248 49.584 9.568C49.824 9.872 50 10.208 50.112 10.576C50.24 10.928 50.304 11.296 50.304 11.68C50.304 12.32 50.184 12.912 49.944 13.456C49.704 13.984 49.336 14.44 48.84 14.824C48.36 15.192 47.752 15.48 47.016 15.688C46.28 15.896 45.416 16 44.424 16H39.888ZM42.6 13.768H44.712C45.288 13.768 45.784 13.688 46.2 13.528C46.616 13.352 46.936 13.104 47.16 12.784C47.384 12.464 47.496 12.072 47.496 11.608C47.496 11.128 47.392 10.712 47.184 10.36C46.976 9.992 46.64 9.704 46.176 9.496C45.712 9.288 45.088 9.184 44.304 9.184H42.6V13.768ZM42.6 7.024H44.232C44.936 7.024 45.488 6.944 45.888 6.784C46.288 6.608 46.568 6.376 46.728 6.088C46.904 5.784 46.992 5.44 46.992 5.056C46.992 4.784 46.944 4.536 46.848 4.312C46.752 4.088 46.6 3.904 46.392 3.76C46.2 3.6 45.944 3.472 45.624 3.376C45.304 3.28 44.92 3.232 44.472 3.232H42.6V7.024ZM53.224 16V1.048H62.968V3.256H55.864V7.096H61.696V9.328H55.864V13.792H62.896V16H53.224ZM66.08 16V1.048H70.808C72.04 1.048 73.04 1.232 73.808 1.6C74.592 1.952 75.168 2.464 75.536 3.136C75.904 3.792 76.088 4.56 76.088 5.44C76.088 5.984 75.968 6.528 75.728 7.072C75.504 7.616 75.184 8.104 74.768 8.536C74.352 8.968 73.856 9.296 73.28 9.52L76.496 16H73.64L70.616 9.784H68.816V16H66.08ZM68.816 7.528H71C71.768 7.528 72.344 7.352 72.728 7C73.112 6.632 73.304 6.136 73.304 5.512C73.304 5.112 73.216 4.76 73.04 4.456C72.88 4.136 72.624 3.88 72.272 3.688C71.936 3.496 71.512 3.4 71 3.4H68.816V7.528ZM18.808 34.264C17.816 34.264 16.88 34.12 16 33.832C15.136 33.528 14.416 33.072 13.84 32.464L15.16 30.232L15.256 30.04L15.472 30.16C15.504 30.272 15.544 30.392 15.592 30.52C15.656 30.648 15.784 30.8 15.976 30.976C16.376 31.28 16.816 31.528 17.296 31.72C17.792 31.896 18.328 31.992 18.904 32.008C19.272 32.008 19.608 31.968 19.912 31.888C20.232 31.808 20.504 31.688 20.728 31.528C20.952 31.368 21.128 31.168 21.256 30.928C21.384 30.672 21.448 30.384 21.448 30.064C21.448 29.872 21.424 29.688 21.376 29.512C21.328 29.336 21.24 29.168 21.112 29.008C21 28.832 20.832 28.664 20.608 28.504C20.384 28.328 20.104 28.144 19.768 27.952C19.432 27.744 19.008 27.528 18.496 27.304C17.472 26.856 16.656 26.4 16.048 25.936C15.456 25.472 15.032 24.976 14.776 24.448C14.52 23.92 14.392 23.32 14.392 22.648C14.392 21.912 14.592 21.256 14.992 20.68C15.408 20.104 15.976 19.648 16.696 19.312C17.416 18.976 18.24 18.808 19.168 18.808C19.792 18.808 20.376 18.88 20.92 19.024C21.464 19.168 21.968 19.384 22.432 19.672C22.896 19.944 23.32 20.296 23.704 20.728L22.12 22.552L21.976 22.72L21.784 22.576C21.768 22.448 21.736 22.328 21.688 22.216C21.656 22.088 21.552 21.928 21.376 21.736C21.072 21.448 20.744 21.256 20.392 21.16C20.056 21.064 19.656 21.016 19.192 21.016C18.856 21.016 18.56 21.056 18.304 21.136C18.048 21.216 17.824 21.328 17.632 21.472C17.456 21.616 17.312 21.784 17.2 21.976C17.104 22.152 17.056 22.336 17.056 22.528C17.056 22.72 17.08 22.904 17.128 23.08C17.176 23.24 17.256 23.4 17.368 23.56C17.496 23.72 17.672 23.888 17.896 24.064C18.136 24.224 18.44 24.4 18.808 24.592C19.176 24.784 19.632 25 20.176 25.24C20.928 25.592 21.56 25.936 22.072 26.272C22.584 26.592 22.984 26.936 23.272 27.304C23.576 27.656 23.792 28.048 23.92 28.48C24.048 28.896 24.112 29.368 24.112 29.896C24.112 30.616 23.928 31.312 23.56 31.984C23.192 32.656 22.616 33.208 21.832 33.64C21.048 34.056 20.04 34.264 18.808 34.264ZM26.912 19.048H29.624H29.864V19.264C29.768 19.36 29.704 19.464 29.672 19.576C29.656 19.688 29.648 19.88 29.648 20.152V25.12H34.256V19.048H36.992H37.208V19.264C37.112 19.36 37.056 19.464 37.04 19.576C37.024 19.688 37.016 19.88 37.016 20.152V34H34.256V27.28H29.648V34H26.912V19.048ZM45.048 34.288C43.816 34.288 42.784 33.984 41.952 33.376C41.136 32.768 40.512 31.888 40.08 30.736C39.664 29.584 39.456 28.184 39.456 26.536C39.456 24.92 39.664 23.544 40.08 22.408C40.512 21.256 41.136 20.376 41.952 19.768C42.784 19.144 43.816 18.832 45.048 18.832C46.264 18.832 47.28 19.144 48.096 19.768C48.928 20.376 49.552 21.256 49.968 22.408C50.4 23.544 50.616 24.92 50.616 26.536C50.616 28.184 50.4 29.592 49.968 30.76C49.552 31.912 48.928 32.792 48.096 33.4C47.28 33.992 46.264 34.288 45.048 34.288ZM45.048 32.08C45.656 32.08 46.168 31.88 46.584 31.48C47.016 31.064 47.344 30.448 47.568 29.632C47.808 28.8 47.928 27.76 47.928 26.512C47.928 25.344 47.808 24.352 47.568 23.536C47.344 22.72 47.016 22.104 46.584 21.688C46.168 21.256 45.656 21.04 45.048 21.04C44.44 21.04 43.92 21.256 43.488 21.688C43.056 22.104 42.72 22.72 42.48 23.536C42.256 24.352 42.144 25.344 42.144 26.512C42.144 27.76 42.256 28.8 42.48 29.632C42.72 30.448 43.056 31.064 43.488 31.48C43.92 31.88 44.44 32.08 45.048 32.08ZM53.152 34V19.048H58.24C59.408 19.048 60.36 19.248 61.096 19.648C61.848 20.048 62.4 20.576 62.752 21.232C63.12 21.888 63.304 22.624 63.304 23.44C63.304 24.032 63.2 24.592 62.992 25.12C62.8 25.632 62.496 26.088 62.08 26.488C61.68 26.872 61.168 27.176 60.544 27.4C59.936 27.624 59.208 27.736 58.36 27.736H55.912V34H53.152ZM55.912 25.48H58.168C58.68 25.48 59.112 25.392 59.464 25.216C59.816 25.04 60.08 24.8 60.256 24.496C60.432 24.192 60.52 23.84 60.52 23.44C60.52 23.04 60.432 22.688 60.256 22.384C60.08 22.08 59.816 21.84 59.464 21.664C59.128 21.488 58.704 21.4 58.192 21.4H55.912V25.48Z" fill="white"/>
</svg>
