<svg width="1605" height="181" viewBox="0 0 1605 181" fill="none" xmlns="http://www.w3.org/2000/svg">
<rect width="1601" height="124.992" transform="translate(4.3623) rotate(2)" fill="#F89369"/>
<path d="M343.027 46.5339L343.097 44.5351L341.098 44.4653L341.028 46.4641L343.027 46.5339ZM352.591 46.8678L352.521 48.8666L354.52 48.9364L354.59 46.9376L352.591 46.8678ZM352.894 38.1831L354.893 38.2529L354.963 36.2542L352.964 36.1844L352.894 38.1831ZM326.29 37.2541L326.36 35.2553L324.361 35.1855L324.292 37.1843L326.29 37.2541ZM325.987 45.9388L323.988 45.869L323.919 47.8678L325.917 47.9376L325.987 45.9388ZM333.902 46.2152L335.901 46.285L335.971 44.2862L333.972 44.2164L333.902 46.2152ZM332.221 94.3659L330.222 94.2961L330.219 94.3896L330.224 94.483L332.221 94.3659ZM332.428 97.8953L330.773 99.0182L334.849 105.026L334.424 97.7782L332.428 97.8953ZM330.439 94.9641L332.094 93.8411L332.029 93.7462L331.955 93.6593L330.439 94.9641ZM279.349 35.6149L280.865 34.3101L280.294 33.6467L279.419 33.6161L279.349 35.6149ZM266.597 35.1696L266.667 33.1708L264.668 33.101L264.598 35.0998L266.597 35.1696ZM266.293 43.8543L264.295 43.7845L264.225 45.7833L266.224 45.8531L266.293 43.8543ZM275.858 44.1883L277.856 44.2581L277.926 42.2593L275.927 42.1895L275.858 44.1883ZM273.777 103.772L273.707 105.771L275.706 105.841L275.776 103.842L273.777 103.772ZM264.213 103.438L264.283 101.439L262.284 101.369L262.214 103.368L264.213 103.438ZM263.909 112.123L261.911 112.053L261.841 114.052L263.84 114.121L263.909 112.123ZM290.513 113.052L290.443 115.05L292.442 115.12L292.512 113.121L290.513 113.052ZM290.817 104.367L292.815 104.437L292.885 102.438L290.886 102.368L290.817 104.367ZM282.901 104.091L280.903 104.021L280.833 106.02L282.832 106.089L282.901 104.091ZM284.541 57.1492L286.539 57.219L286.543 57.1255L286.537 57.0321L284.541 57.1492ZM284.334 53.6198L285.989 52.4969L281.912 46.489L282.337 53.7369L284.334 53.6198ZM286.323 56.551L284.668 57.674L284.737 57.7767L284.819 57.8701L286.323 56.551ZM340.52 118.32L339.017 119.639L342.343 123.43L342.519 118.39L340.52 118.32ZM342.957 48.5326L352.521 48.8666L352.661 44.8691L343.097 44.5351L342.957 48.5326ZM354.59 46.9376L354.893 38.2529L350.895 38.1133L350.592 46.798L354.59 46.9376ZM352.964 36.1844L326.36 35.2553L326.221 39.2529L352.824 40.1819L352.964 36.1844ZM324.292 37.1843L323.988 45.869L327.986 46.0086L328.289 37.3239L324.292 37.1843ZM325.917 47.9376L333.832 48.214L333.972 44.2164L326.057 43.94L325.917 47.9376ZM331.903 46.1454L330.222 94.2961L334.22 94.4357L335.901 46.285L331.903 46.1454ZM330.224 94.483L330.431 98.0123L334.424 97.7782L334.217 94.2488L330.224 94.483ZM334.083 96.7723L332.094 93.8411L328.784 96.087L330.773 99.0182L334.083 96.7723ZM331.955 93.6593L280.865 34.3101L277.833 36.9197L328.923 96.2689L331.955 93.6593ZM279.419 33.6161L266.667 33.1708L266.527 37.1684L279.279 37.6137L279.419 33.6161ZM264.598 35.0998L264.295 43.7845L268.292 43.9241L268.596 35.2394L264.598 35.0998ZM266.224 45.8531L275.788 46.187L275.927 42.1895L266.363 41.8555L266.224 45.8531ZM273.859 44.1185L271.778 103.702L275.776 103.842L277.856 44.2581L273.859 44.1185ZM273.847 101.773L264.283 101.439L264.143 105.437L273.707 105.771L273.847 101.773ZM262.214 103.368L261.911 112.053L265.908 112.192L266.212 103.508L262.214 103.368ZM263.84 114.121L290.443 115.05L290.583 111.053L263.979 110.124L263.84 114.121ZM292.512 113.121L292.815 104.437L288.818 104.297L288.514 112.982L292.512 113.121ZM290.886 102.368L282.971 102.092L282.832 106.089L290.747 106.366L290.886 102.368ZM284.9 104.16L286.539 57.219L282.542 57.0794L280.903 104.021L284.9 104.16ZM286.537 57.0321L286.33 53.5027L282.337 53.7369L282.544 57.2663L286.537 57.0321ZM282.679 54.7428L284.668 57.674L287.978 55.4281L285.989 52.4969L282.679 54.7428ZM284.819 57.8701L339.017 119.639L342.023 117.001L287.826 55.232L284.819 57.8701ZM342.519 118.39L345.025 46.6037L341.028 46.4641L338.521 118.25L342.519 118.39ZM426.385 107.12L425.036 105.643L425.028 105.65L425.021 105.657L426.385 107.12ZM435.283 94.9931L433.486 94.115L433.481 94.1266L433.475 94.1382L435.283 94.9931ZM436.347 64.5417L434.479 65.258L434.486 65.2752L434.493 65.2923L436.347 64.5417ZM428.323 51.6038L429.786 50.2398L429.786 50.2398L428.323 51.6038ZM415.977 42.6974L415.098 44.4944L415.115 44.5024L415.132 44.5102L415.977 42.6974ZM385.525 41.6341L386.252 43.4974L386.264 43.4927L386.276 43.4878L385.525 41.6341ZM372.807 49.6651L374.171 51.1278L374.179 51.1208L374.186 51.1137L372.807 49.6651ZM363.901 62.0118L365.709 62.8667L365.714 62.8567L363.901 62.0118ZM362.837 92.4632L360.974 93.1899L360.974 93.1899L362.837 92.4632ZM370.868 105.181L372.345 103.832L372.331 103.817L372.317 103.802L370.868 105.181ZM382.995 114.08L383.85 112.272L383.85 112.272L382.995 114.08ZM413.447 115.143L412.73 113.276L412.72 113.28L413.447 115.143ZM377.569 99.2515L379.05 97.9071L379.032 97.8874L379.014 97.8681L377.569 99.2515ZM371.308 89.457L369.433 90.1535L369.441 90.1759L369.45 90.1981L371.308 89.457ZM372.141 65.6015L370.333 64.7457L370.329 64.7545L370.325 64.7632L372.141 65.6015ZM379.078 56.0478L380.442 57.5105L380.452 57.5015L380.462 57.4922L379.078 56.0478ZM388.873 49.7858L389.614 51.6435L389.614 51.6435L388.873 49.7858ZM412.398 50.6074L411.529 52.4088L411.529 52.4088L412.398 50.6074ZM421.842 57.5412L423.323 56.1968L423.314 56.1869L423.305 56.1772L421.842 57.5412ZM427.877 67.5479L426.002 68.2444L426.01 68.2668L426.019 68.289L427.877 67.5479ZM427.044 91.4033L425.236 90.5476L425.232 90.5563L425.228 90.565L427.044 91.4033ZM420.333 100.745L418.969 99.2821L418.969 99.2821L420.333 100.745ZM410.429 107.003L409.688 105.145L409.688 105.145L410.429 107.003ZM386.903 106.181L386.034 107.983L386.034 107.983L386.903 106.181ZM427.733 108.597C431.646 105.023 434.765 100.768 437.091 95.848L433.475 94.1382C431.364 98.6028 428.552 102.432 425.036 105.643L427.733 108.597ZM437.08 95.8712C439.5 90.9193 440.805 85.5861 441.004 79.8935L437.006 79.7539C436.826 84.9081 435.65 89.6878 433.486 94.115L437.08 95.8712ZM441.004 79.8935C441.2 74.2702 440.268 68.896 438.2 63.791L434.493 65.2923C436.344 69.8632 437.183 74.6771 437.006 79.7539L441.004 79.8935ZM438.214 63.8253C436.242 58.6852 433.433 54.1507 429.786 50.2398L426.861 52.9678C430.145 56.4899 432.685 60.5807 434.479 65.258L438.214 63.8253ZM429.786 50.2398C426.139 46.3288 421.812 43.2104 416.821 40.8847L415.132 44.5102C419.672 46.6265 423.576 49.4456 426.861 52.9678L429.786 50.2398ZM416.855 40.9005C411.906 38.4823 406.61 37.1772 400.987 36.9808L400.847 40.9784C405.924 41.1557 410.668 42.3291 415.098 44.4944L416.855 40.9005ZM400.987 36.9808C395.294 36.782 389.883 37.7117 384.775 39.7803L386.276 43.4878C390.843 41.6384 395.693 40.7984 400.847 40.9784L400.987 36.9808ZM384.799 39.7707C379.729 41.7479 375.266 44.5631 371.428 48.2165L374.186 51.1137C377.635 47.8305 381.651 45.2917 386.252 43.4974L384.799 39.7707ZM371.443 48.2024C367.532 51.8494 364.414 56.1769 362.088 61.1669L365.714 62.8567C367.83 58.3159 370.649 54.4123 374.171 51.1278L371.443 48.2024ZM362.093 61.1569C359.754 66.1028 358.49 71.392 358.294 77.0053L362.292 77.1449C362.469 72.058 363.61 67.305 365.709 62.8667L362.093 61.1569ZM358.294 77.0053C358.096 82.6879 358.985 88.0894 360.974 93.1899L364.701 91.7366C362.918 87.1662 362.111 82.3089 362.292 77.1449L358.294 77.0053ZM360.974 93.1899C362.951 98.2598 365.767 102.723 369.42 106.56L372.317 103.802C369.034 100.353 366.495 96.3375 364.701 91.7366L360.974 93.1899ZM369.392 106.53C372.965 110.442 377.221 113.562 382.14 115.888L383.85 112.272C379.386 110.161 375.557 107.348 372.345 103.832L369.392 106.53ZM382.14 115.888C387.09 118.228 392.416 119.492 398.099 119.69L398.238 115.693C393.074 115.513 388.285 114.369 383.85 112.272L382.14 115.888ZM398.099 119.69C403.712 119.886 409.076 118.994 414.173 117.007L412.72 113.28C408.146 115.064 403.325 115.87 398.238 115.693L398.099 119.69ZM414.163 117.011C419.303 115.039 423.838 112.23 427.749 108.583L425.021 105.657C421.498 108.942 417.408 111.482 412.73 113.276L414.163 117.011ZM379.014 97.8681C376.507 95.2503 374.557 92.2053 373.165 88.7159L369.45 90.1981C371.027 94.1502 373.252 97.6348 376.125 100.635L379.014 97.8681ZM373.182 88.7605C371.869 85.2264 371.276 81.4668 371.416 77.4635L367.419 77.3239C367.261 81.822 367.929 86.1046 369.433 90.1535L373.182 88.7605ZM371.416 77.4635C371.556 73.4598 372.408 69.7927 373.956 66.4399L370.325 64.7632C368.539 68.6318 367.576 72.826 367.419 77.3239L371.416 77.4635ZM373.948 66.4573C375.587 62.9966 377.751 60.02 380.442 57.5105L377.714 54.5851C374.641 57.4511 372.18 60.8436 370.333 64.7457L373.948 66.4573ZM380.462 57.4922C383.079 54.985 386.124 53.0356 389.614 51.6435L388.132 47.9282C384.18 49.5049 380.695 51.7301 377.695 54.6034L380.462 57.4922ZM389.614 51.6435C393.066 50.2663 396.738 49.6402 400.65 49.7769L400.79 45.7793C396.347 45.6242 392.121 46.3366 388.132 47.9282L389.614 51.6435ZM400.65 49.7769C404.563 49.9135 408.182 50.7942 411.529 52.4088L413.267 48.806C409.398 46.9399 405.232 45.9344 400.79 45.7793L400.65 49.7769ZM411.529 52.4088C414.918 54.0432 417.864 56.2073 420.379 58.9052L423.305 56.1772C420.445 53.1106 417.095 50.6522 413.267 48.806L411.529 52.4088ZM420.361 58.8856C422.798 61.5688 424.678 64.6823 426.002 68.2444L429.751 66.8514C428.258 62.8305 426.116 59.2729 423.323 56.1968L420.361 58.8856ZM426.019 68.289C427.394 71.7364 428.021 75.4443 427.882 79.4353L431.879 79.5749C432.037 75.0644 431.328 70.8008 429.734 66.8068L426.019 68.289ZM427.882 79.4353C427.742 83.4261 426.857 87.1233 425.236 90.5476L428.851 92.2591C430.716 88.3206 431.722 84.0856 431.879 79.5749L427.882 79.4353ZM425.228 90.565C423.665 93.949 421.579 96.8485 418.969 99.2821L421.697 102.208C424.7 99.4073 427.088 96.0791 428.859 92.2417L425.228 90.565ZM418.969 99.2821C416.272 101.798 413.182 103.751 409.688 105.145L411.17 108.861C415.117 107.286 418.631 105.067 421.697 102.208L418.969 99.2821ZM409.688 105.145C406.236 106.523 402.564 107.149 398.652 107.012L398.512 111.01C402.954 111.165 407.181 110.452 411.17 108.861L409.688 105.145ZM398.652 107.012C394.739 106.875 391.12 105.995 387.772 104.38L386.034 107.983C389.903 109.849 394.07 110.854 398.512 111.01L398.652 107.012ZM387.772 104.38C384.388 102.748 381.487 100.591 379.05 97.9071L376.089 100.596C378.881 103.672 382.202 106.134 386.034 107.983L387.772 104.38ZM486.449 115.051L487.701 116.61L487.73 116.587L487.758 116.563L486.449 115.051ZM491.524 108.404L489.747 107.487L489.736 107.508L489.726 107.528L491.524 108.404ZM491.287 86.8226L493.023 85.8299L493.023 85.8299L491.287 86.8226ZM484.05 79.7457L483.124 81.5188L483.127 81.5203L484.05 79.7457ZM473.634 75.4196L472.993 77.314L473.011 77.3199L473.028 77.3255L473.634 75.4196ZM464.311 71.3517L463.266 73.0574L463.291 73.0725L463.316 73.0868L464.311 71.3517ZM460.362 67.8018L458.712 68.9312L458.726 68.9527L458.742 68.9738L460.362 67.8018ZM459.828 57.8771L457.965 57.1509L457.953 57.1796L457.943 57.2086L459.828 57.8771ZM462.161 54.1062L460.703 52.7375L460.696 52.7444L462.161 54.1062ZM466.215 51.4961L466.907 53.3725L466.943 53.3592L466.978 53.3446L466.215 51.4961ZM477.993 51.4671L478.527 49.5398L478.527 49.5398L477.993 51.4671ZM482.776 53.1751L484.775 53.2449L484.821 51.9178L483.616 51.36L482.776 53.1751ZM482.55 59.6611L480.551 59.5913L480.481 61.5901L482.48 61.6599L482.55 59.6611ZM491.234 59.9644L491.165 61.9632L493.163 62.033L493.233 60.0342L491.234 59.9644ZM491.611 49.191L493.609 49.2608L493.642 48.3246L492.944 47.7002L491.611 49.191ZM486.347 45.485L485.39 47.2416L485.405 47.2493L485.419 47.2568L486.347 45.485ZM481.249 43.3258L480.677 45.2422L480.677 45.2422L481.249 43.3258ZM476.443 42.2774L476.184 44.2606L476.184 44.2606L476.443 42.2774ZM454.999 48.0226L456.475 49.3718L456.475 49.3718L454.999 48.0226ZM451.141 54.4918L453.034 55.1383L453.034 55.1383L451.141 54.4918ZM449.898 61.7129L451.898 61.7504L451.898 61.7363L451.898 61.7221L449.898 61.7129ZM452.278 72.3624L450.605 73.4581L450.615 73.4742L450.626 73.4902L452.278 72.3624ZM458.89 78.4269L459.885 76.6918L459.875 76.6862L459.866 76.6807L458.89 78.4269ZM467.35 82.0243L467.924 80.1084L467.924 80.1084L467.35 82.0243ZM475.825 85.182L476.75 83.4089L476.705 83.3852L476.658 83.3638L475.825 85.182ZM480.13 87.9739L478.861 89.5193L478.911 89.5605L478.963 89.5983L480.13 87.9739ZM483.411 91.7207L485.15 90.7326L485.148 90.728L483.411 91.7207ZM484.392 95.1671L482.397 95.3184L482.402 95.3728L482.409 95.4268L484.392 95.1671ZM483.178 104.701L481.422 103.744L481.422 103.744L483.178 104.701ZM479.848 108.657L480.978 110.307L481.027 110.274L481.074 110.237L479.848 108.657ZM475.037 110.91L475.529 112.849L475.566 112.839L475.602 112.828L475.037 110.91ZM460.662 109.638L459.829 111.456L459.851 111.466L459.873 111.475L460.662 109.638ZM453.981 105.552L451.982 105.482L451.948 106.466L452.707 107.094L453.981 105.552ZM454.322 95.768L456.321 95.8378L456.391 93.839L454.392 93.7692L454.322 95.768ZM445.638 95.4647L445.708 93.466L443.709 93.3962L443.639 95.3949L445.638 95.4647ZM445.192 108.217L443.194 108.147L443.173 108.74L443.479 109.248L445.192 108.217ZM449.004 112.533L447.717 114.064L447.733 114.077L447.749 114.09L449.004 112.533ZM454.818 116.258L455.726 114.476L455.726 114.476L454.818 116.258ZM461.985 119.04L461.432 120.962L461.458 120.969L461.483 120.976L461.985 119.04ZM478.934 119.081L479.515 120.995L479.537 120.988L479.559 120.981L478.934 119.081ZM487.758 116.563C490.087 114.547 491.943 112.112 493.322 109.28L489.726 107.528C488.576 109.891 487.048 111.887 485.14 113.539L487.758 116.563ZM493.302 109.321C494.792 106.431 495.579 103.189 495.703 99.6345L491.705 99.4949C491.599 102.536 490.933 105.187 489.747 107.487L493.302 109.321ZM495.703 99.6345C495.897 94.0792 495.074 89.4166 493.023 85.8299L489.551 87.8153C491.096 90.518 491.885 94.3502 491.705 99.4949L495.703 99.6345ZM493.023 85.8299C491.047 82.3735 488.361 79.7326 484.972 77.9711L483.127 81.5203C485.792 82.9054 487.931 84.9824 489.551 87.8153L493.023 85.8299ZM484.975 77.9727C481.556 76.1882 477.977 74.702 474.24 73.5137L473.028 77.3255C476.549 78.4452 479.914 79.8431 483.124 81.5188L484.975 77.9727ZM474.276 73.5252C470.74 72.3284 467.756 71.0217 465.305 69.6166L463.316 73.0868C466.044 74.651 469.277 76.0562 472.993 77.314L474.276 73.5252ZM465.355 69.646C463.893 68.7508 462.785 67.7393 461.983 66.6297L458.742 68.9738C459.899 70.5743 461.424 71.9294 463.266 73.0574L465.355 69.646ZM462.013 66.6723C461.335 65.6817 460.944 64.3196 461.01 62.4311L457.012 62.2915C456.925 64.8003 457.435 67.0652 458.712 68.9312L462.013 66.6723ZM461.01 62.4311C461.06 61.0019 461.3 59.7112 461.713 58.5455L457.943 57.2086C457.38 58.7972 457.075 60.496 457.012 62.2915L461.01 62.4311ZM461.692 58.6033C462.17 57.3745 462.818 56.3371 463.626 55.468L460.696 52.7444C459.522 54.0075 458.614 55.4839 457.965 57.1509L461.692 58.6033ZM463.619 55.4749C464.45 54.5901 465.528 53.8811 466.907 53.3725L465.523 49.6197C463.631 50.3176 462.006 51.3487 460.703 52.7375L463.619 55.4749ZM466.978 53.3446C468.297 52.8 469.919 52.526 471.9 52.5952L472.039 48.5976C469.622 48.5132 467.409 48.839 465.451 49.6476L466.978 53.3446ZM471.9 52.5952C473.967 52.6673 475.816 52.939 477.459 53.3944L478.527 49.5398C476.536 48.9878 474.37 48.679 472.039 48.5976L471.9 52.5952ZM477.459 53.3944C479.195 53.8759 480.684 54.4104 481.936 54.9902L483.616 51.36C482.125 50.6699 480.424 50.0658 478.527 49.5398L477.459 53.3944ZM480.777 53.1053L480.551 59.5913L484.549 59.7309L484.775 53.2449L480.777 53.1053ZM482.48 61.6599L491.165 61.9632L491.304 57.9656L482.62 57.6624L482.48 61.6599ZM493.233 60.0342L493.609 49.2608L489.612 49.1212L489.236 59.8946L493.233 60.0342ZM492.944 47.7002C491.128 46.0766 489.239 44.7422 487.275 43.7133L485.419 47.2568C487.057 48.1147 488.677 49.251 490.277 50.6818L492.944 47.7002ZM487.303 43.7285C485.468 42.7294 483.64 41.9525 481.821 41.4094L480.677 45.2422C482.198 45.6963 483.769 46.3588 485.39 47.2416L487.303 43.7285ZM481.821 41.4094C480.061 40.884 478.354 40.51 476.702 40.2943L476.184 44.2606C477.599 44.4455 479.096 44.7704 480.677 45.2422L481.821 41.4094ZM476.702 40.2943C475.115 40.0871 473.625 39.9577 472.233 39.9091L472.093 43.9066C473.339 43.9501 474.702 44.0671 476.184 44.2606L476.702 40.2943ZM472.233 39.9091C468.007 39.7615 464.28 40.2839 461.121 41.5666L462.626 45.2727C465.125 44.2582 468.258 43.7727 472.093 43.9066L472.233 39.9091ZM461.121 41.5666C458.065 42.808 455.51 44.4987 453.523 46.6733L456.475 49.3718C457.997 47.7066 460.026 46.3287 462.626 45.2727L461.121 41.5666ZM453.523 46.6733C451.588 48.7904 450.157 51.1845 449.248 53.8454L453.034 55.1383C453.759 53.0133 454.901 51.0946 456.475 49.3718L453.523 46.6733ZM449.248 53.8454C448.364 56.4343 447.91 59.0562 447.898 61.7036L451.898 61.7221C451.908 59.5273 452.283 57.3352 453.034 55.1383L449.248 53.8454ZM447.899 61.6753C447.809 66.438 448.629 70.4409 450.605 73.4581L453.951 71.2668C452.583 69.1774 451.817 66.0806 451.898 61.7504L447.899 61.6753ZM450.626 73.4902C452.544 76.2979 454.978 78.5326 457.915 80.173L459.866 76.6807C457.477 75.3468 455.503 73.5386 453.93 71.2346L450.626 73.4902ZM457.896 80.162C460.627 81.7277 463.589 82.9855 466.776 83.9402L467.924 80.1084C465.011 79.2358 462.333 78.0953 459.885 76.6918L457.896 80.162ZM466.776 83.9402C469.747 84.8302 472.485 85.8513 474.992 87.0002L476.658 83.3638C473.965 82.1298 471.053 81.0457 467.924 80.1084L466.776 83.9402ZM474.9 86.9551C476.457 87.768 477.772 88.6253 478.861 89.5193L481.4 86.4286C480.063 85.33 478.508 84.3261 476.75 83.4089L474.9 86.9551ZM478.963 89.5983C479.988 90.3344 480.898 91.3548 481.675 92.7135L485.148 90.728C484.126 88.942 482.849 87.4646 481.297 86.3496L478.963 89.5983ZM481.673 92.7089C482.055 93.382 482.315 94.2341 482.397 95.3184L486.386 95.0157C486.267 93.4513 485.874 92.006 485.15 90.7326L481.673 92.7089ZM482.409 95.4268C482.568 96.646 482.627 97.8588 482.585 99.0664L486.582 99.206C486.632 97.7752 486.563 96.3419 486.375 94.9073L482.409 95.4268ZM482.585 99.0664C482.519 100.937 482.111 102.477 481.422 103.744L484.935 105.657C485.97 103.755 486.499 101.586 486.582 99.206L482.585 99.0664ZM481.422 103.744C480.684 105.098 479.751 106.201 478.622 107.077L481.074 110.237C482.661 109.006 483.947 107.471 484.935 105.657L481.422 103.744ZM478.719 107.006C477.475 107.857 476.064 108.522 474.471 108.992L475.602 112.828C477.568 112.249 479.365 111.411 480.978 110.307L478.719 107.006ZM474.544 108.972C472.958 109.375 471.307 109.549 469.583 109.489L469.443 113.487C471.531 113.559 473.561 113.349 475.529 112.849L474.544 108.972ZM469.583 109.489C466.492 109.381 463.792 108.806 461.452 107.8L459.873 111.475C462.737 112.706 465.938 113.364 469.443 113.487L469.583 109.489ZM461.495 107.82C459.025 106.687 456.952 105.413 455.255 104.01L452.707 107.094C454.718 108.756 457.1 110.205 459.829 111.456L461.495 107.82ZM455.98 105.622L456.321 95.8378L452.324 95.6982L451.982 105.482L455.98 105.622ZM454.392 93.7692L445.708 93.466L445.568 97.4635L454.253 97.7668L454.392 93.7692ZM443.639 95.3949L443.194 108.147L447.191 108.287L447.637 95.5345L443.639 95.3949ZM443.479 109.248C444.516 110.973 445.945 112.574 447.717 114.064L450.291 111.002C448.784 109.735 447.672 108.459 446.906 107.186L443.479 109.248ZM447.749 114.09C449.58 115.565 451.636 116.88 453.909 118.04L455.726 114.476C453.674 113.43 451.854 112.261 450.259 110.975L447.749 114.09ZM453.909 118.04C456.199 119.207 458.709 120.179 461.432 120.962L462.537 117.117C460.03 116.397 457.762 115.514 455.726 114.476L453.909 118.04ZM461.483 120.976C464.247 121.692 467.093 122.1 470.019 122.202L470.159 118.204C467.515 118.112 464.959 117.744 462.487 117.104L461.483 120.976ZM470.019 122.202C473.308 122.317 476.476 121.917 479.515 120.995L478.353 117.167C475.755 117.956 473.027 118.305 470.159 118.204L470.019 122.202ZM479.559 120.981C482.594 119.981 485.314 118.527 487.701 116.61L485.197 113.491C483.205 115.091 480.915 116.323 478.308 117.181L479.559 120.981ZM539.946 116.919L541.198 118.479L541.227 118.455L541.255 118.431L539.946 116.919ZM545.021 110.272L543.243 109.356L543.233 109.376L543.223 109.397L545.021 110.272ZM544.784 88.6908L546.52 87.698L546.52 87.698L544.784 88.6908ZM537.546 81.6139L536.621 83.3869L536.624 83.3885L537.546 81.6139ZM527.131 77.2877L526.49 79.1822L526.507 79.1881L526.525 79.1937L527.131 77.2877ZM517.807 73.2199L516.763 74.9256L516.788 74.9406L516.813 74.955L517.807 73.2199ZM513.859 69.6699L512.208 70.7994L512.223 70.8209L512.238 70.8419L513.859 69.6699ZM513.325 59.7452L511.461 59.0191L511.45 59.0477L511.44 59.0768L513.325 59.7452ZM515.658 55.9744L514.2 54.6056L514.193 54.6125L515.658 55.9744ZM519.711 53.3642L520.404 55.2406L520.44 55.2274L520.475 55.2127L519.711 53.3642ZM531.49 53.3353L532.024 51.408L532.024 51.408L531.49 53.3353ZM536.273 55.0432L538.272 55.113L538.318 53.7859L537.113 53.2282L536.273 55.0432ZM536.046 61.5293L534.048 61.4595L533.978 63.4583L535.977 63.5281L536.046 61.5293ZM544.731 61.8326L544.661 63.8313L546.66 63.9011L546.73 61.9024L544.731 61.8326ZM545.107 51.0591L547.106 51.1289L547.139 50.1927L546.441 49.5683L545.107 51.0591ZM539.843 47.3532L538.887 49.1097L538.901 49.1174L538.916 49.1249L539.843 47.3532ZM534.746 45.1939L534.174 47.1104L534.174 47.1104L534.746 45.1939ZM529.939 44.1456L529.68 46.1287L529.68 46.1287L529.939 44.1456ZM508.496 49.8907L509.972 51.24L509.972 51.24L508.496 49.8907ZM504.638 56.36L506.53 57.0065L506.53 57.0065L504.638 56.36ZM503.395 63.581L505.395 63.6186L505.395 63.6044L505.395 63.5902L503.395 63.581ZM505.775 74.2306L504.102 75.3262L504.112 75.3424L504.123 75.3584L505.775 74.2306ZM512.387 80.295L513.382 78.5599L513.372 78.5543L513.362 78.5489L512.387 80.295ZM520.847 83.8924L521.421 81.9766L521.421 81.9766L520.847 83.8924ZM529.322 87.0501L530.247 85.2771L530.202 85.2533L530.155 85.232L529.322 87.0501ZM533.627 89.8421L532.357 91.3874L532.407 91.4286L532.46 91.4665L533.627 89.8421ZM536.908 93.5889L538.647 92.6008L538.644 92.5962L536.908 93.5889ZM537.888 97.0352L535.894 97.1866L535.898 97.2409L535.905 97.295L537.888 97.0352ZM536.675 106.569L534.918 105.612L534.918 105.612L536.675 106.569ZM533.345 110.525L534.474 112.175L534.524 112.142L534.571 112.105L533.345 110.525ZM528.533 112.778L529.026 114.717L529.063 114.707L529.099 114.697L528.533 112.778ZM514.159 111.506L513.326 113.324L513.347 113.334L513.369 113.343L514.159 111.506ZM507.477 107.42L505.479 107.35L505.444 108.335L506.203 108.962L507.477 107.42ZM507.819 97.6362L509.818 97.706L509.888 95.7072L507.889 95.6374L507.819 97.6362ZM499.134 97.3329L499.204 95.3341L497.205 95.2643L497.136 97.2631L499.134 97.3329ZM498.689 110.085L496.69 110.015L496.67 110.608L496.975 111.116L498.689 110.085ZM502.501 114.401L501.214 115.932L501.23 115.945L501.246 115.958L502.501 114.401ZM508.314 118.126L509.223 116.344L509.223 116.344L508.314 118.126ZM515.482 120.908L514.929 122.83L514.954 122.837L514.98 122.844L515.482 120.908ZM532.431 120.949L533.011 122.863L533.034 122.856L533.056 122.849L532.431 120.949ZM541.255 118.431C543.584 116.415 545.44 113.981 546.819 111.148L543.223 109.397C542.072 111.759 540.545 113.756 538.637 115.407L541.255 118.431ZM546.798 111.189C548.288 108.299 549.075 105.057 549.199 101.503L545.202 101.363C545.096 104.405 544.429 107.055 543.243 109.356L546.798 111.189ZM549.199 101.503C549.393 95.9473 548.571 91.2847 546.52 87.698L543.048 89.6835C544.593 92.3861 545.381 96.2183 545.202 101.363L549.199 101.503ZM546.52 87.698C544.544 84.2416 541.858 81.6008 538.469 79.8393L536.624 83.3885C539.289 84.7735 541.428 86.8506 543.048 89.6835L546.52 87.698ZM538.472 79.8408C535.053 78.0563 531.474 76.5702 527.737 75.3818L526.525 79.1937C530.045 80.3133 533.41 81.7112 536.621 83.3869L538.472 79.8408ZM527.772 75.3933C524.236 74.1966 521.253 72.8899 518.802 71.4848L516.813 74.955C519.541 76.5191 522.774 77.9243 526.49 79.1822L527.772 75.3933ZM518.852 71.5142C517.389 70.6189 516.282 69.6074 515.479 68.4979L512.238 70.8419C513.396 72.4424 514.921 73.7976 516.763 74.9256L518.852 71.5142ZM515.509 68.5404C514.831 67.5499 514.441 66.1878 514.507 64.2993L510.509 64.1597C510.421 66.6685 510.931 68.9333 512.208 70.7994L515.509 68.5404ZM514.507 64.2993C514.557 62.87 514.796 61.5793 515.21 60.4137L511.44 59.0768C510.877 60.6654 510.572 62.3642 510.509 64.1597L514.507 64.2993ZM515.188 60.4714C515.667 59.2427 516.315 58.2052 517.123 57.3362L514.193 54.6125C513.019 55.8756 512.111 57.3521 511.461 59.0191L515.188 60.4714ZM517.116 57.3431C517.947 56.4582 519.025 55.7493 520.404 55.2406L519.019 51.4878C517.127 52.1858 515.503 53.2169 514.2 54.6056L517.116 57.3431ZM520.475 55.2127C521.793 54.6681 523.416 54.3942 525.397 54.4633L525.536 50.4657C523.119 50.3813 520.905 50.7072 518.948 51.5157L520.475 55.2127ZM525.397 54.4633C527.463 54.5355 529.313 54.8071 530.955 55.2626L532.024 51.408C530.033 50.856 527.867 50.5471 525.536 50.4657L525.397 54.4633ZM530.955 55.2626C532.692 55.744 534.18 56.2786 535.433 56.8583L537.113 53.2282C535.622 52.538 533.921 51.934 532.024 51.408L530.955 55.2626ZM534.274 54.9734L534.048 61.4595L538.045 61.5991L538.272 55.113L534.274 54.9734ZM535.977 63.5281L544.661 63.8313L544.801 59.8338L536.116 59.5305L535.977 63.5281ZM546.73 61.9024L547.106 51.1289L543.109 50.9893L542.732 61.7628L546.73 61.9024ZM546.441 49.5683C544.625 47.9447 542.736 46.6104 540.771 45.5814L538.916 49.1249C540.554 49.9829 542.174 51.1191 543.774 52.55L546.441 49.5683ZM540.8 45.5966C538.965 44.5976 537.137 43.8206 535.318 43.2775L534.174 47.1104C535.695 47.5645 537.266 48.227 538.887 49.1097L540.8 45.5966ZM535.318 43.2775C533.558 42.7521 531.851 42.3782 530.198 42.1624L529.68 46.1287C531.096 46.3136 532.593 46.6386 534.174 47.1104L535.318 43.2775ZM530.198 42.1624C528.612 41.9552 527.122 41.8258 525.729 41.7772L525.59 45.7748C526.836 45.8183 528.199 45.9352 529.68 46.1287L530.198 42.1624ZM525.729 41.7772C521.503 41.6296 517.777 42.152 514.618 43.4348L516.123 47.1408C518.621 46.1263 521.754 45.6408 525.59 45.7748L525.729 41.7772ZM514.618 43.4348C511.561 44.6761 509.007 46.3668 507.02 48.5414L509.972 51.24C511.494 49.5747 513.523 48.1968 516.123 47.1408L514.618 43.4348ZM507.02 48.5414C505.085 50.6585 503.654 53.0526 502.745 55.7135L506.53 57.0065C507.256 54.8815 508.398 52.9627 509.972 51.24L507.02 48.5414ZM502.745 55.7135C501.861 58.3025 501.407 60.9244 501.395 63.5718L505.395 63.5902C505.405 61.3955 505.78 59.2034 506.53 57.0065L502.745 55.7135ZM501.395 63.5435C501.306 68.3062 502.126 72.3091 504.102 75.3262L507.448 73.1349C506.08 71.0456 505.313 67.9488 505.395 63.6186L501.395 63.5435ZM504.123 75.3584C506.04 78.166 508.474 80.4008 511.412 82.0412L513.362 78.5489C510.974 77.2149 509 75.4067 507.426 73.1027L504.123 75.3584ZM511.392 82.0301C514.124 83.5958 517.086 84.8536 520.273 85.8083L521.421 81.9766C518.508 81.1039 515.83 79.9635 513.382 78.5599L511.392 82.0301ZM520.273 85.8083C523.244 86.6984 525.981 87.7194 528.488 88.8683L530.155 85.232C527.462 83.9979 524.549 82.9138 521.421 81.9766L520.273 85.8083ZM528.396 88.8232C529.954 89.6361 531.269 90.4935 532.357 91.3874L534.896 88.2967C533.559 87.1982 532.004 86.1942 530.247 85.2771L528.396 88.8232ZM532.46 91.4665C533.485 92.2025 534.395 93.223 535.172 94.5816L538.644 92.5962C537.623 90.8101 536.346 89.3327 534.794 88.2177L532.46 91.4665ZM535.169 94.577C535.552 95.2501 535.812 96.1023 535.894 97.1866L539.883 96.8838C539.764 95.3195 539.371 93.8741 538.647 92.6008L535.169 94.577ZM535.905 97.295C536.065 98.5141 536.123 99.7269 536.081 100.935L540.079 101.074C540.129 99.6433 540.059 98.21 539.871 96.7755L535.905 97.295ZM536.081 100.935C536.016 102.805 535.608 104.346 534.918 105.612L538.432 107.525C539.467 105.623 539.996 103.455 540.079 101.074L536.081 100.935ZM534.918 105.612C534.181 106.967 533.248 108.069 532.119 108.945L534.571 112.105C536.157 110.874 537.444 109.339 538.432 107.525L534.918 105.612ZM532.215 108.874C530.972 109.725 529.561 110.39 527.967 110.86L529.099 114.697C531.065 114.117 532.861 113.279 534.474 112.175L532.215 108.874ZM528.041 110.84C526.455 111.243 524.803 111.417 523.08 111.357L522.94 115.355C525.027 115.428 527.058 115.217 529.026 114.717L528.041 110.84ZM523.08 111.357C519.989 111.249 517.289 110.674 514.948 109.668L513.369 113.343C516.234 114.574 519.434 115.232 522.94 115.355L523.08 111.357ZM514.992 109.688C512.522 108.556 510.449 107.281 508.751 105.878L506.203 108.962C508.215 110.624 510.596 112.073 513.326 113.324L514.992 109.688ZM509.476 107.49L509.818 97.706L505.82 97.5664L505.479 107.35L509.476 107.49ZM507.889 95.6374L499.204 95.3341L499.065 99.3317L507.749 99.6349L507.889 95.6374ZM497.136 97.2631L496.69 110.015L500.688 110.155L501.133 97.4027L497.136 97.2631ZM496.975 111.116C498.013 112.841 499.442 114.442 501.214 115.932L503.788 112.87C502.281 111.603 501.169 110.327 500.403 109.054L496.975 111.116ZM501.246 115.958C503.076 117.434 505.133 118.749 507.406 119.908L509.223 116.344C507.17 115.298 505.351 114.129 503.756 112.844L501.246 115.958ZM507.406 119.908C509.695 121.075 512.205 122.047 514.929 122.83L516.034 118.986C513.527 118.265 511.259 117.382 509.223 116.344L507.406 119.908ZM514.98 122.844C517.743 123.56 520.59 123.968 523.516 124.07L523.656 120.073C521.012 119.98 518.456 119.612 515.983 118.972L514.98 122.844ZM523.516 124.07C526.804 124.185 529.973 123.785 533.011 122.863L531.85 119.036C529.252 119.824 526.524 120.173 523.656 120.073L523.516 124.07ZM533.056 122.849C536.091 121.85 538.811 120.395 541.198 118.479L538.694 115.36C536.702 116.959 534.411 118.191 531.805 119.05L533.056 122.849ZM620.799 113.909L619.45 112.432L619.443 112.439L619.435 112.446L620.799 113.909ZM629.698 101.782L627.901 100.904L627.895 100.916L627.89 100.927L629.698 101.782ZM630.761 71.3308L628.894 72.0471L628.901 72.0643L628.908 72.0814L630.761 71.3308ZM622.738 58.3929L624.201 57.0289L624.201 57.0289L622.738 58.3929ZM610.391 49.4866L609.513 51.2835L609.53 51.2916L609.546 51.2993L610.391 49.4866ZM579.94 48.4232L580.667 50.2865L580.679 50.2818L580.691 50.277L579.94 48.4232ZM567.222 56.4542L568.586 57.9169L568.593 57.9099L568.601 57.9028L567.222 56.4542ZM558.316 68.8009L560.124 69.6558L560.128 69.6458L558.316 68.8009ZM557.252 99.2523L555.389 99.979L555.389 99.979L557.252 99.2523ZM565.283 111.97L566.76 110.622L566.746 110.606L566.732 110.591L565.283 111.97ZM577.41 120.869L578.265 119.061L578.265 119.061L577.41 120.869ZM607.861 121.932L607.145 120.065L607.135 120.069L607.861 121.932ZM571.984 106.041L573.465 104.696L573.447 104.676L573.429 104.657L571.984 106.041ZM565.722 96.2461L563.847 96.9426L563.856 96.965L563.865 96.9872L565.722 96.2461ZM566.555 72.3906L564.748 71.5349L564.743 71.5436L564.739 71.5523L566.555 72.3906ZM573.493 62.837L574.857 64.2997L574.867 64.2906L574.876 64.2813L573.493 62.837ZM583.287 56.575L584.029 58.4326L584.029 58.4326L583.287 56.575ZM606.813 57.3965L605.944 59.1979L605.944 59.1979L606.813 57.3965ZM616.257 64.3303L617.738 62.9859L617.729 62.9761L617.72 62.9663L616.257 64.3303ZM622.291 74.337L620.416 75.0335L620.425 75.0559L620.434 75.0781L622.291 74.337ZM621.458 98.1925L619.651 97.3367L619.646 97.3454L619.642 97.3541L621.458 98.1925ZM614.748 107.534L613.384 106.071L613.384 106.071L614.748 107.534ZM604.844 113.792L604.103 111.934L604.103 111.934L604.844 113.792ZM581.318 112.971L580.449 114.772L580.449 114.772L581.318 112.971ZM622.148 115.386C626.06 111.812 629.18 107.557 631.506 102.637L627.89 100.927C625.779 105.392 622.966 109.221 619.45 112.432L622.148 115.386ZM631.495 102.66C633.915 97.7085 635.22 92.3752 635.418 86.6826L631.421 86.543C631.241 91.6972 630.065 96.4769 627.901 100.904L631.495 102.66ZM635.418 86.6826C635.615 81.0593 634.682 75.6851 632.615 70.5801L628.908 72.0814C630.758 76.6524 631.598 81.4662 631.421 86.543L635.418 86.6826ZM632.629 70.6144C630.657 65.4743 627.848 60.9398 624.201 57.0289L621.275 59.7569C624.56 63.279 627.1 67.3698 628.894 72.0471L632.629 70.6144ZM624.201 57.0289C620.554 53.1179 616.226 49.9995 611.236 47.6738L609.546 51.2993C614.087 53.4156 617.991 56.2347 621.275 59.7569L624.201 57.0289ZM611.269 47.6896C606.321 45.2714 601.025 43.9663 595.402 43.7699L595.262 47.7675C600.339 47.9448 605.082 49.1182 609.513 51.2835L611.269 47.6896ZM595.402 43.7699C589.709 43.5712 584.298 44.5008 579.189 46.5694L580.691 50.277C585.258 48.4275 590.108 47.5875 595.262 47.7675L595.402 43.7699ZM579.213 46.5598C574.143 48.537 569.681 51.3522 565.843 55.0056L568.601 57.9028C572.05 54.6196 576.066 52.0808 580.667 50.2865L579.213 46.5598ZM565.858 54.9915C561.947 58.6385 558.828 62.966 556.503 67.956L560.128 69.6458C562.245 65.105 565.064 61.2014 568.586 57.9169L565.858 54.9915ZM556.507 67.946C554.169 72.8919 552.905 78.1811 552.709 83.7944L556.706 83.934C556.884 78.8471 558.025 74.0941 560.124 69.6558L556.507 67.946ZM552.709 83.7944C552.51 89.477 553.4 94.8785 555.389 99.979L559.115 98.5257C557.333 93.9553 556.526 89.098 556.706 83.934L552.709 83.7944ZM555.389 99.979C557.366 105.049 560.181 109.512 563.835 113.349L566.732 110.591C563.449 107.143 560.91 103.127 559.115 98.5257L555.389 99.979ZM563.806 113.319C567.38 117.231 571.635 120.351 576.555 122.677L578.265 119.061C573.8 116.95 569.971 114.137 566.76 110.622L563.806 113.319ZM576.555 122.677C581.504 125.017 586.831 126.281 592.513 126.48L592.653 122.482C587.489 122.302 582.7 121.158 578.265 119.061L576.555 122.677ZM592.513 126.48C598.127 126.676 603.491 125.783 608.588 123.796L607.135 120.069C602.561 121.853 597.74 122.66 592.653 122.482L592.513 126.48ZM608.578 123.8C613.718 121.828 618.252 119.019 622.163 115.372L619.435 112.446C615.913 115.731 611.822 118.271 607.145 120.065L608.578 123.8ZM573.429 104.657C570.921 102.039 568.972 98.9944 567.58 95.505L563.865 96.9872C565.441 100.939 567.666 104.424 570.54 107.424L573.429 104.657ZM567.597 95.5496C566.284 92.0155 565.691 88.2559 565.831 84.2526L561.833 84.113C561.676 88.6111 562.343 92.8937 563.847 96.9426L567.597 95.5496ZM565.831 84.2526C565.971 80.2489 566.823 76.5818 568.371 73.229L564.739 71.5523C562.953 75.4209 561.99 79.6152 561.833 84.113L565.831 84.2526ZM568.363 73.2464C570.001 69.7857 572.166 66.8091 574.857 64.2997L572.129 61.3742C569.056 64.2402 566.595 67.6327 564.748 71.5349L568.363 73.2464ZM574.876 64.2813C577.494 61.7741 580.539 59.8247 584.029 58.4326L582.546 54.7173C578.594 56.294 575.11 58.5192 572.11 61.3926L574.876 64.2813ZM584.029 58.4326C587.48 57.0554 591.152 56.4293 595.065 56.566L595.204 52.5684C590.762 52.4133 586.536 53.1257 582.546 54.7173L584.029 58.4326ZM595.065 56.566C598.977 56.7026 602.597 57.5833 605.944 59.1979L607.682 55.5951C603.813 53.7291 599.647 52.7235 595.204 52.5684L595.065 56.566ZM605.944 59.1979C609.333 60.8323 612.278 62.9965 614.794 65.6943L617.72 62.9663C614.86 59.8997 611.51 57.4413 607.682 55.5951L605.944 59.1979ZM614.776 65.6747C617.212 68.358 619.093 71.4714 620.416 75.0335L624.166 73.6405C622.672 69.6196 620.53 66.062 617.738 62.9859L614.776 65.6747ZM620.434 75.0781C621.809 78.5255 622.436 82.2334 622.296 86.2244L626.294 86.364C626.452 81.8535 625.742 77.5899 624.149 73.5959L620.434 75.0781ZM622.296 86.2244C622.157 90.2152 621.272 93.9124 619.651 97.3367L623.266 99.0482C625.13 95.1097 626.136 90.8747 626.294 86.364L622.296 86.2244ZM619.642 97.3541C618.08 100.738 615.994 103.638 613.384 106.071L616.112 108.997C619.115 106.196 621.502 102.868 623.274 99.0308L619.642 97.3541ZM613.384 106.071C610.686 108.587 607.597 110.54 604.103 111.934L605.585 115.65C609.532 114.075 613.046 111.856 616.112 108.997L613.384 106.071ZM604.103 111.934C600.651 113.312 596.979 113.938 593.066 113.801L592.927 117.799C597.369 117.954 601.595 117.241 605.585 115.65L604.103 111.934ZM593.066 113.801C589.154 113.664 585.534 112.784 582.187 111.169L580.449 114.772C584.318 116.638 588.484 117.644 592.927 117.799L593.066 113.801ZM582.187 111.169C578.803 109.537 575.901 107.38 573.465 104.696L570.503 107.385C573.296 110.461 576.617 112.923 580.449 114.772L582.187 111.169ZM680.864 121.84L682.116 123.4L682.145 123.376L682.173 123.352L680.864 121.84ZM685.939 115.193L684.161 114.277L684.151 114.297L684.141 114.318L685.939 115.193ZM685.702 93.6117L687.438 92.619L687.438 92.619L685.702 93.6117ZM678.464 86.5348L677.539 88.3079L677.542 88.3094L678.464 86.5348ZM668.049 82.2087L667.408 84.1031L667.425 84.1091L667.443 84.1146L668.049 82.2087ZM658.725 78.1408L657.681 79.8466L657.706 79.8616L657.731 79.876L658.725 78.1408ZM654.777 74.5909L653.126 75.7204L653.141 75.7418L653.156 75.7629L654.777 74.5909ZM654.243 64.6662L652.379 63.94L652.368 63.9687L652.358 63.9977L654.243 64.6662ZM656.576 60.8953L655.118 59.5266L655.111 59.5335L656.576 60.8953ZM660.629 58.2852L661.322 60.1616L661.358 60.1483L661.393 60.1337L660.629 58.2852ZM672.408 58.2562L672.942 56.3289L672.942 56.3289L672.408 58.2562ZM677.191 59.9642L679.19 60.034L679.236 58.7069L678.031 58.1491L677.191 59.9642ZM676.964 66.4503L674.966 66.3805L674.896 68.3792L676.895 68.449L676.964 66.4503ZM685.649 66.7535L685.579 68.7523L687.578 68.8221L687.648 66.8233L685.649 66.7535ZM686.025 55.9801L688.024 56.0499L688.057 55.1137L687.359 54.4893L686.025 55.9801ZM680.761 52.2741L679.805 54.0307L679.819 54.0384L679.834 54.0459L680.761 52.2741ZM675.664 50.1149L675.092 52.0313L675.092 52.0313L675.664 50.1149ZM670.857 49.0665L670.598 51.0497L670.598 51.0497L670.857 49.0665ZM649.414 54.8117L650.89 56.1609L650.89 56.1609L649.414 54.8117ZM645.556 61.281L647.448 61.9274L647.448 61.9274L645.556 61.281ZM644.313 68.502L646.313 68.5395L646.313 68.5254L646.313 68.5112L644.313 68.502ZM646.693 79.1515L645.02 80.2472L645.03 80.2634L645.041 80.2793L646.693 79.1515ZM653.305 85.216L654.3 83.4809L654.29 83.4753L654.28 83.4698L653.305 85.216ZM661.765 88.8134L662.339 86.8975L662.339 86.8975L661.765 88.8134ZM670.24 91.9711L671.165 90.1981L671.12 90.1743L671.073 90.1529L670.24 91.9711ZM674.545 94.7631L673.275 96.3084L673.325 96.3496L673.378 96.3874L674.545 94.7631ZM677.826 98.5099L679.565 97.5217L679.562 97.5171L677.826 98.5099ZM678.806 101.956L676.812 102.108L676.816 102.162L676.823 102.216L678.806 101.956ZM677.593 111.49L675.836 110.533L675.836 110.533L677.593 111.49ZM674.263 115.446L675.392 117.096L675.442 117.063L675.489 117.026L674.263 115.446ZM669.451 117.699L669.944 119.638L669.981 119.628L670.017 119.618L669.451 117.699ZM655.077 116.427L654.244 118.245L654.265 118.255L654.287 118.264L655.077 116.427ZM648.395 112.341L646.397 112.271L646.362 113.256L647.121 113.883L648.395 112.341ZM648.737 102.557L650.736 102.627L650.806 100.628L648.807 100.558L648.737 102.557ZM640.052 102.254L640.122 100.255L638.123 100.185L638.054 102.184L640.052 102.254ZM639.607 115.006L637.608 114.936L637.588 115.529L637.893 116.037L639.607 115.006ZM643.419 119.322L642.132 120.853L642.148 120.866L642.164 120.879L643.419 119.322ZM649.232 123.047L650.141 121.265L650.141 121.265L649.232 123.047ZM656.4 125.829L655.847 127.751L655.872 127.758L655.898 127.765L656.4 125.829ZM673.349 125.87L673.929 127.784L673.952 127.777L673.974 127.77L673.349 125.87ZM682.173 123.352C684.502 121.336 686.358 118.902 687.737 116.069L684.141 114.318C682.991 116.68 681.463 118.677 679.555 120.328L682.173 123.352ZM687.716 116.11C689.206 113.22 689.993 109.978 690.117 106.424L686.12 106.284C686.014 109.325 685.347 111.976 684.161 114.277L687.716 116.11ZM690.117 106.424C690.311 100.868 689.489 96.2057 687.438 92.619L683.966 94.6045C685.511 97.3071 686.3 101.139 686.12 106.284L690.117 106.424ZM687.438 92.619C685.462 89.1626 682.776 86.5217 679.387 84.7602L677.542 88.3094C680.207 89.6945 682.346 91.7715 683.966 94.6045L687.438 92.619ZM679.39 84.7618C675.971 82.9773 672.392 81.4911 668.655 80.3028L667.443 84.1146C670.963 85.2343 674.328 86.6322 677.539 88.3079L679.39 84.7618ZM668.69 80.3143C665.154 79.1175 662.171 77.8109 659.72 76.4057L657.731 79.876C660.459 81.4401 663.692 82.8453 667.408 84.1031L668.69 80.3143ZM659.77 76.4351C658.307 75.5399 657.2 74.5284 656.397 73.4188L653.156 75.7629C654.314 77.3634 655.839 78.7185 657.681 79.8466L659.77 76.4351ZM656.427 73.4614C655.749 72.4708 655.359 71.1087 655.425 69.2202L651.427 69.0806C651.339 71.5894 651.849 73.8543 653.126 75.7204L656.427 73.4614ZM655.425 69.2202C655.475 67.791 655.714 66.5003 656.128 65.3347L652.358 63.9977C651.795 65.5864 651.49 67.2852 651.427 69.0806L655.425 69.2202ZM656.106 65.3924C656.585 64.1636 657.233 63.1262 658.041 62.2571L655.111 59.5335C653.937 60.7966 653.029 62.2731 652.379 63.94L656.106 65.3924ZM658.034 62.2641C658.865 61.3792 659.943 60.6702 661.322 60.1616L659.937 56.4088C658.045 57.1067 656.421 58.1379 655.118 59.5266L658.034 62.2641ZM661.393 60.1337C662.711 59.5891 664.334 59.3151 666.315 59.3843L666.454 55.3867C664.037 55.3023 661.823 55.6281 659.866 56.4367L661.393 60.1337ZM666.315 59.3843C668.381 59.4565 670.231 59.7281 671.873 60.1835L672.942 56.3289C670.951 55.7769 668.785 55.4681 666.454 55.3867L666.315 59.3843ZM671.873 60.1835C673.61 60.665 675.098 61.1995 676.351 61.7793L678.031 58.1491C676.54 57.459 674.839 56.8549 672.942 56.3289L671.873 60.1835ZM675.192 59.8944L674.966 66.3805L678.963 66.5201L679.19 60.034L675.192 59.8944ZM676.895 68.449L685.579 68.7523L685.719 64.7548L677.034 64.4515L676.895 68.449ZM687.648 66.8233L688.024 56.0499L684.027 55.9103L683.65 66.6837L687.648 66.8233ZM687.359 54.4893C685.543 52.8657 683.654 51.5313 681.689 50.5024L679.834 54.0459C681.472 54.9038 683.092 56.0401 684.692 57.4709L687.359 54.4893ZM681.718 50.5176C679.883 49.5185 678.055 48.7416 676.236 48.1985L675.092 52.0313C676.613 52.4854 678.184 53.1479 679.805 54.0307L681.718 50.5176ZM676.236 48.1985C674.476 47.6731 672.769 47.2991 671.116 47.0834L670.598 51.0497C672.014 51.2346 673.511 51.5595 675.092 52.0313L676.236 48.1985ZM671.116 47.0834C669.53 46.8762 668.04 46.7468 666.647 46.6982L666.508 50.6957C667.754 50.7392 669.117 50.8562 670.598 51.0497L671.116 47.0834ZM666.647 46.6982C662.421 46.5506 658.695 47.073 655.536 48.3558L657.041 52.0618C659.539 51.0473 662.672 50.5618 666.508 50.6957L666.647 46.6982ZM655.536 48.3558C652.48 49.5971 649.925 51.2878 647.938 53.4624L650.89 56.1609C652.412 54.4957 654.441 53.1178 657.041 52.0618L655.536 48.3558ZM647.938 53.4624C646.003 55.5795 644.572 57.9736 643.663 60.6345L647.448 61.9274C648.174 59.8024 649.316 57.8837 650.89 56.1609L647.938 53.4624ZM643.663 60.6345C642.779 63.2234 642.325 65.8453 642.313 68.4928L646.313 68.5112C646.323 66.3165 646.698 64.1244 647.448 61.9274L643.663 60.6345ZM642.313 68.4644C642.224 73.2271 643.044 77.23 645.02 80.2472L648.366 78.0559C646.998 75.9666 646.231 72.8697 646.313 68.5395L642.313 68.4644ZM645.041 80.2793C646.958 83.087 649.393 85.3217 652.33 86.9622L654.28 83.4698C651.892 82.1359 649.918 80.3277 648.344 78.0237L645.041 80.2793ZM652.31 86.9511C655.042 88.5168 658.004 89.7746 661.191 90.7293L662.339 86.8975C659.426 86.0249 656.748 84.8845 654.3 83.4809L652.31 86.9511ZM661.191 90.7293C664.162 91.6194 666.899 92.6404 669.406 93.7893L671.073 90.1529C668.38 88.9189 665.467 87.8348 662.339 86.8975L661.191 90.7293ZM669.314 93.7442C670.872 94.5571 672.187 95.4145 673.275 96.3084L675.814 93.2177C674.477 92.1191 672.922 91.1152 671.165 90.1981L669.314 93.7442ZM673.378 96.3874C674.403 97.1235 675.313 98.144 676.09 99.5026L679.562 97.5171C678.541 95.7311 677.264 94.2537 675.712 93.1387L673.378 96.3874ZM676.087 99.498C676.47 100.171 676.73 101.023 676.812 102.108L680.801 101.805C680.682 100.24 680.289 98.7951 679.565 97.5217L676.087 99.498ZM676.823 102.216C676.983 103.435 677.041 104.648 676.999 105.855L680.997 105.995C681.047 104.564 680.977 103.131 680.789 101.696L676.823 102.216ZM676.999 105.855C676.934 107.726 676.526 109.267 675.836 110.533L679.35 112.446C680.385 110.544 680.914 108.375 680.997 105.995L676.999 105.855ZM675.836 110.533C675.099 111.887 674.166 112.99 673.037 113.866L675.489 117.026C677.075 115.795 678.362 114.26 679.35 112.446L675.836 110.533ZM673.133 113.795C671.89 114.646 670.479 115.311 668.885 115.781L670.017 119.618C671.983 119.038 673.779 118.2 675.392 117.096L673.133 113.795ZM668.959 115.761C667.373 116.164 665.721 116.338 663.998 116.278L663.858 120.276C665.945 120.349 667.976 120.138 669.944 119.638L668.959 115.761ZM663.998 116.278C660.907 116.17 658.207 115.595 655.866 114.589L654.287 118.264C657.152 119.495 660.352 120.153 663.858 120.276L663.998 116.278ZM655.91 114.609C653.44 113.477 651.367 112.202 649.669 110.799L647.121 113.883C649.133 115.545 651.514 116.994 654.244 118.245L655.91 114.609ZM650.394 112.411L650.736 102.627L646.738 102.487L646.397 112.271L650.394 112.411ZM648.807 100.558L640.122 100.255L639.983 104.253L648.667 104.556L648.807 100.558ZM638.054 102.184L637.608 114.936L641.606 115.076L642.051 102.324L638.054 102.184ZM637.893 116.037C638.931 117.762 640.36 119.363 642.132 120.853L644.706 117.791C643.199 116.524 642.087 115.248 641.321 113.975L637.893 116.037ZM642.164 120.879C643.994 122.355 646.051 123.669 648.324 124.829L650.141 121.265C648.089 120.219 646.269 119.05 644.674 117.765L642.164 120.879ZM648.324 124.829C650.613 125.996 653.123 126.968 655.847 127.751L656.952 123.907C654.445 123.186 652.177 122.303 650.141 121.265L648.324 124.829ZM655.898 127.765C658.661 128.481 661.508 128.889 664.434 128.991L664.574 124.993C661.93 124.901 659.374 124.533 656.901 123.893L655.898 127.765ZM664.434 128.991C667.722 129.106 670.891 128.706 673.929 127.784L672.768 123.956C670.17 124.745 667.442 125.094 664.574 124.993L664.434 128.991ZM673.974 127.77C677.009 126.771 679.729 125.316 682.116 123.4L679.612 120.281C677.62 121.88 675.329 123.112 672.723 123.971L673.974 127.77ZM787.659 125.79L788.595 127.557L790.503 126.547L789.35 124.721L787.659 125.79ZM782.965 118.361L784.656 117.293L783.662 115.72L782.022 116.598L782.965 118.361ZM775.602 121.186L776.046 123.136L776.065 123.132L776.084 123.127L775.602 121.186ZM756.084 119.074L755.202 120.868L755.208 120.872L755.215 120.875L756.084 119.074ZM746.86 112.147L748.341 110.803L748.323 110.783L748.304 110.764L746.86 112.147ZM740.602 102.243L738.727 102.939L738.733 102.955L738.739 102.971L740.602 102.243ZM741.431 78.4974L739.623 77.6417L739.616 77.6567L739.609 77.6719L741.431 78.4974ZM748.373 68.8338L749.755 70.2787L749.756 70.2782L748.373 68.8338ZM758.057 62.568L757.316 60.7104L757.309 60.7131L757.302 60.716L758.057 62.568ZM775.708 61.4233L775.19 63.3552L775.226 63.3647L775.262 63.3729L775.708 61.4233ZM781.253 63.378L783.252 63.4478L783.297 62.1436L782.122 61.5766L781.253 63.378ZM781.019 70.0839L779.02 70.0141L778.95 72.0129L780.949 72.0827L781.019 70.0839ZM789.704 70.3872L789.634 72.386L791.633 72.4558L791.702 70.457L789.704 70.3872ZM790.134 58.0747L792.132 58.1445L792.172 56.9985L791.203 56.385L790.134 58.0747ZM780.711 53.6732L780.09 55.5741L780.101 55.5776L780.711 53.6732ZM754.816 54.53L755.542 56.3933L755.554 56.3886L755.566 56.3838L754.816 54.53ZM742.102 62.4511L740.738 60.9884L740.738 60.9884L742.102 62.4511ZM733.195 74.7978L735.003 75.6526L735.008 75.6426L733.195 74.7978ZM732.128 105.359L730.265 106.086L730.265 106.086L732.128 105.359ZM740.159 118.077L741.636 116.728L741.622 116.713L741.608 116.698L740.159 118.077ZM752.286 126.976L753.141 125.168L753.141 125.168L752.286 126.976ZM778.063 129.527L778.55 131.467L778.564 131.463L778.578 131.459L778.063 129.527ZM789.35 124.721L784.656 117.293L781.274 119.43L785.968 126.858L789.35 124.721ZM782.022 116.598C779.852 117.758 777.553 118.641 775.12 119.245L776.084 123.127C778.833 122.445 781.442 121.444 783.908 120.125L782.022 116.598ZM775.158 119.236C772.82 119.768 770.38 119.993 767.832 119.904L767.693 123.902C770.568 124.002 773.354 123.749 776.046 123.136L775.158 119.236ZM767.832 119.904C763.92 119.767 760.3 118.887 756.953 117.272L755.215 120.875C759.084 122.741 763.25 123.746 767.693 123.902L767.832 119.904ZM756.966 117.279C753.655 115.651 750.784 113.494 748.341 110.803L745.379 113.492C748.165 116.56 751.444 119.021 755.202 120.868L756.966 117.279ZM748.304 110.764C745.804 108.153 743.856 105.077 742.465 101.515L738.739 102.971C740.311 106.997 742.536 110.524 745.416 113.531L748.304 110.764ZM742.477 101.546C741.162 98.0081 740.57 94.2847 740.707 90.3594L736.709 90.2198C736.554 94.6494 737.225 98.8949 738.727 102.939L742.477 101.546ZM740.707 90.3594C740.844 86.4341 741.695 82.7611 743.253 79.323L739.609 77.6719C737.828 81.6018 736.864 85.7902 736.709 90.2198L740.707 90.3594ZM743.239 79.3532C744.879 75.8879 747.051 72.8675 749.755 70.2787L746.99 67.3889C743.925 70.3222 741.469 73.7441 739.623 77.6417L743.239 79.3532ZM749.756 70.2782C752.381 67.7644 755.395 65.8131 758.812 64.42L757.302 60.716C753.424 62.2968 749.982 64.5227 746.989 67.3894L749.756 70.2782ZM758.798 64.4256C762.25 63.0485 765.922 62.4224 769.835 62.559L769.974 58.5614C765.532 58.4063 761.306 59.1187 757.316 60.7104L758.798 64.4256ZM769.835 62.559C771.664 62.6229 773.448 62.8885 775.19 63.3552L776.225 59.4914C774.187 58.9455 772.102 58.6358 769.974 58.5614L769.835 62.559ZM775.262 63.3729C777.004 63.7715 778.711 64.3723 780.384 65.1794L782.122 61.5766C780.187 60.6434 778.197 59.9411 776.154 59.4737L775.262 63.3729ZM779.254 63.3082L779.02 70.0141L783.018 70.1537L783.252 63.4478L779.254 63.3082ZM780.949 72.0827L789.634 72.386L789.773 68.3884L781.089 68.0851L780.949 72.0827ZM791.702 70.457L792.132 58.1445L788.135 58.0049L787.705 70.3174L791.702 70.457ZM791.203 56.385C788.116 54.4298 784.821 52.8907 781.322 51.7687L780.101 55.5776C783.278 56.5966 786.264 57.9919 789.064 59.7644L791.203 56.385ZM781.333 51.7723C777.875 50.6411 774.186 50.0132 770.278 49.8767L770.138 53.8743C773.704 53.9988 777.018 54.5695 780.09 55.5741L781.333 51.7723ZM770.278 49.8767C764.585 49.6779 759.174 50.6076 754.065 52.6762L755.566 56.3838C760.134 54.5343 764.984 53.6943 770.138 53.8743L770.278 49.8767ZM754.089 52.6666C749.028 54.6404 744.571 57.4134 740.738 60.9884L743.466 63.9138C746.913 60.6988 750.933 58.191 755.542 56.3933L754.089 52.6666ZM740.738 60.9884C736.827 64.6354 733.708 68.9628 731.382 73.9529L735.008 75.6426C737.124 71.1019 739.943 67.1982 743.466 63.9138L740.738 60.9884ZM731.387 73.9429C729.047 78.8922 727.783 84.2185 727.585 89.9012L731.582 90.0408C731.763 84.8767 732.906 80.0876 735.003 75.6526L731.387 73.9429ZM727.585 89.9012C727.386 95.5838 728.276 100.985 730.265 106.086L733.991 104.632C732.209 100.062 731.402 95.2048 731.582 90.0408L727.585 89.9012ZM730.265 106.086C732.242 111.156 735.057 115.618 738.71 119.456L741.608 116.698C738.324 113.249 735.786 109.233 733.991 104.632L730.265 106.086ZM738.682 119.426C742.256 123.338 746.511 126.458 751.431 128.784L753.141 125.168C748.676 123.057 744.847 120.244 741.636 116.728L738.682 119.426ZM751.431 128.784C756.38 131.124 761.707 132.388 767.389 132.586L767.529 128.589C762.365 128.408 757.576 127.265 753.141 125.168L751.431 128.784ZM767.389 132.586C771.298 132.723 775.021 132.354 778.55 131.467L777.575 127.587C774.441 128.375 771.095 128.713 767.529 128.589L767.389 132.586ZM778.578 131.459C782.125 130.514 785.465 129.214 788.595 127.557L786.723 124.022C783.872 125.532 780.815 126.723 777.547 127.594L778.578 131.459ZM863.772 122.394L862.423 120.917L862.416 120.924L862.408 120.931L863.772 122.394ZM872.671 110.267L870.874 109.389L870.868 109.4L870.863 109.412L872.671 110.267ZM873.734 79.8156L871.867 80.5319L871.874 80.5491L871.881 80.5662L873.734 79.8156ZM865.711 66.8777L867.174 65.5137L867.174 65.5137L865.711 66.8777ZM853.364 57.9714L852.486 59.7683L852.503 59.7764L852.519 59.7841L853.364 57.9714ZM822.913 56.908L823.64 58.7713L823.652 58.7666L823.664 58.7618L822.913 56.908ZM810.195 64.939L811.559 66.4017L811.566 66.3947L811.574 66.3876L810.195 64.939ZM801.289 77.2857L803.097 78.1406L803.101 78.1306L801.289 77.2857ZM800.225 107.737L798.362 108.464L798.362 108.464L800.225 107.737ZM808.256 120.455L809.733 119.106L809.719 119.091L809.705 119.076L808.256 120.455ZM820.383 129.354L821.238 127.546L821.238 127.546L820.383 129.354ZM850.834 130.417L850.118 128.55L850.108 128.554L850.834 130.417ZM814.957 114.525L816.438 113.181L816.42 113.161L816.402 113.142L814.957 114.525ZM808.695 104.731L806.82 105.427L806.829 105.45L806.838 105.472L808.695 104.731ZM809.528 80.8755L807.721 80.0197L807.716 80.0284L807.712 80.0371L809.528 80.8755ZM816.466 71.3218L817.83 72.7845L817.84 72.7754L817.849 72.7661L816.466 71.3218ZM826.26 65.0598L827.002 66.9174L827.002 66.9174L826.26 65.0598ZM849.786 65.8813L848.917 67.6827L848.917 67.6827L849.786 65.8813ZM859.23 72.8151L860.711 71.4707L860.702 71.4609L860.693 71.4511L859.23 72.8151ZM865.264 82.8218L863.389 83.5183L863.398 83.5407L863.407 83.5629L865.264 82.8218ZM864.431 106.677L862.624 105.821L862.619 105.83L862.615 105.839L864.431 106.677ZM857.721 116.019L856.357 114.556L856.357 114.556L857.721 116.019ZM847.817 122.277L847.076 120.419L847.076 120.419L847.817 122.277ZM824.291 121.455L823.422 123.257L823.422 123.257L824.291 121.455ZM865.121 123.871C869.033 120.297 872.153 116.042 874.479 111.122L870.863 109.412C868.752 113.877 865.939 117.706 862.423 120.917L865.121 123.871ZM874.468 111.145C876.888 106.193 878.193 100.86 878.391 95.1674L874.394 95.0279C874.214 100.182 873.038 104.962 870.874 109.389L874.468 111.145ZM878.391 95.1674C878.588 89.5441 877.655 84.1699 875.588 79.0649L871.881 80.5662C873.731 85.1372 874.571 89.951 874.394 95.0279L878.391 95.1674ZM875.602 79.0992C873.63 73.9591 870.821 69.4246 867.174 65.5137L864.248 68.2417C867.533 71.7638 870.073 75.8546 871.867 80.5319L875.602 79.0992ZM867.174 65.5137C863.527 61.6027 859.199 58.4843 854.209 56.1586L852.519 59.7841C857.06 61.9004 860.964 64.7195 864.248 68.2417L867.174 65.5137ZM854.242 56.1744C849.294 53.7562 843.998 52.4511 838.375 52.2547L838.235 56.2523C843.312 56.4296 848.055 57.603 852.486 59.7683L854.242 56.1744ZM838.375 52.2547C832.682 52.056 827.271 52.9856 822.162 55.0542L823.664 58.7618C828.231 56.9123 833.081 56.0723 838.235 56.2523L838.375 52.2547ZM822.186 55.0446C817.116 57.0218 812.654 59.837 808.816 63.4904L811.574 66.3876C815.023 63.1044 819.039 60.5656 823.64 58.7713L822.186 55.0446ZM808.831 63.4763C804.92 67.1233 801.801 71.4508 799.476 76.4408L803.101 78.1306C805.218 73.5898 808.037 69.6862 811.559 66.4017L808.831 63.4763ZM799.48 76.4308C797.142 81.3767 795.878 86.6659 795.682 92.2792L799.679 92.4188C799.857 87.3319 800.998 82.5789 803.097 78.1406L799.48 76.4308ZM795.682 92.2792C795.483 97.9618 796.373 103.363 798.362 108.464L802.088 107.01C800.306 102.44 799.499 97.5828 799.679 92.4188L795.682 92.2792ZM798.362 108.464C800.339 113.534 803.154 117.996 806.808 121.834L809.705 119.076C806.422 115.627 803.883 111.611 802.088 107.01L798.362 108.464ZM806.779 121.804C810.353 125.716 814.608 128.836 819.528 131.162L821.238 127.546C816.773 125.435 812.944 122.622 809.733 119.106L806.779 121.804ZM819.528 131.162C824.477 133.502 829.804 134.766 835.486 134.964L835.626 130.967C830.462 130.786 825.673 129.643 821.238 127.546L819.528 131.162ZM835.486 134.964C841.1 135.16 846.464 134.268 851.561 132.281L850.108 128.554C845.534 130.338 840.713 131.144 835.626 130.967L835.486 134.964ZM851.551 132.285C856.691 130.313 861.225 127.504 865.136 123.857L862.408 120.931C858.886 124.216 854.795 126.756 850.118 128.55L851.551 132.285ZM816.402 113.142C813.894 110.524 811.945 107.479 810.553 103.99L806.838 105.472C808.414 109.424 810.639 112.909 813.513 115.909L816.402 113.142ZM810.57 104.034C809.257 100.5 808.664 96.7407 808.804 92.7374L804.806 92.5978C804.649 97.0959 805.316 101.379 806.82 105.427L810.57 104.034ZM808.804 92.7374C808.944 88.7338 809.796 85.0666 811.344 81.7138L807.712 80.0371C805.926 83.9057 804.963 88.1 804.806 92.5978L808.804 92.7374ZM811.336 81.7312C812.974 78.2705 815.139 75.2939 817.83 72.7845L815.102 69.859C812.029 72.725 809.568 76.1175 807.721 80.0197L811.336 81.7312ZM817.849 72.7661C820.467 70.2589 823.512 68.3095 827.002 66.9174L825.519 63.2021C821.567 64.7788 818.083 67.004 815.083 69.8774L817.849 72.7661ZM827.002 66.9174C830.453 65.5402 834.125 64.9142 838.038 65.0508L838.177 61.0532C833.735 60.8981 829.509 61.6105 825.519 63.2021L827.002 66.9174ZM838.038 65.0508C841.95 65.1874 845.57 66.0681 848.917 67.6827L850.655 64.0799C846.786 62.2139 842.62 61.2083 838.177 61.0532L838.038 65.0508ZM848.917 67.6827C852.306 69.3171 855.251 71.4813 857.767 74.1791L860.693 71.4511C857.833 68.3845 854.483 65.9261 850.655 64.0799L848.917 67.6827ZM857.749 74.1595C860.185 76.8428 862.066 79.9562 863.389 83.5183L867.139 82.1253C865.645 78.1044 863.503 74.5468 860.711 71.4707L857.749 74.1595ZM863.407 83.5629C864.782 87.0103 865.409 90.7182 865.269 94.7092L869.267 94.8488C869.424 90.3383 868.715 86.0747 867.122 82.0807L863.407 83.5629ZM865.269 94.7092C865.13 98.7 864.245 102.397 862.624 105.821L866.239 107.533C868.103 103.595 869.109 99.3595 869.267 94.8488L865.269 94.7092ZM862.615 105.839C861.053 109.223 858.967 112.122 856.357 114.556L859.085 117.481C862.088 114.681 864.475 111.353 866.247 107.516L862.615 105.839ZM856.357 114.556C853.659 117.072 850.57 119.025 847.076 120.419L848.558 124.135C852.505 122.56 856.019 120.341 859.085 117.481L856.357 114.556ZM847.076 120.419C843.624 121.796 839.952 122.423 836.039 122.286L835.9 126.283C840.342 126.439 844.568 125.726 848.558 124.135L847.076 120.419ZM836.039 122.286C832.127 122.149 828.507 121.269 825.16 119.654L823.422 123.257C827.291 125.123 831.457 126.128 835.9 126.283L836.039 122.286ZM825.16 119.654C821.776 118.022 818.874 115.865 816.438 113.181L813.476 115.87C816.269 118.945 819.59 121.408 823.422 123.257L825.16 119.654ZM962.879 68.1796L962.949 66.1808L960.95 66.111L960.881 68.1098L962.879 68.1796ZM972.444 68.5136L972.374 70.5124L974.373 70.5822L974.442 68.5834L972.444 68.5136ZM972.747 59.8289L974.746 59.8987L974.815 57.8999L972.817 57.8301L972.747 59.8289ZM946.143 58.8998L946.213 56.9011L944.214 56.8313L944.144 58.83L946.143 58.8998ZM945.84 67.5846L943.841 67.5148L943.771 69.5135L945.77 69.5833L945.84 67.5846ZM953.755 67.861L955.754 67.9308L955.824 65.932L953.825 65.8622L953.755 67.861ZM952.073 116.012L950.075 115.942L950.071 116.035L950.077 116.129L952.073 116.012ZM952.28 119.541L950.625 120.664L954.702 126.672L954.277 119.424L952.28 119.541ZM950.292 116.61L951.946 115.487L951.882 115.392L951.807 115.305L950.292 116.61ZM899.202 57.2606L900.717 55.9558L900.146 55.2924L899.271 55.2618L899.202 57.2606ZM886.449 56.8153L886.519 54.8165L884.52 54.7467L884.451 56.7455L886.449 56.8153ZM886.146 65.5L884.147 65.4302L884.078 67.429L886.076 67.4988L886.146 65.5ZM895.71 65.834L897.709 65.9038L897.779 63.905L895.78 63.8352L895.71 65.834ZM893.63 125.418L893.56 127.416L895.559 127.486L895.628 125.487L893.63 125.418ZM884.065 125.084L884.135 123.085L882.136 123.015L882.067 125.014L884.065 125.084ZM883.762 133.768L881.763 133.699L881.694 135.697L883.692 135.767L883.762 133.768ZM910.366 134.697L910.296 136.696L912.295 136.766L912.365 134.767L910.366 134.697ZM910.669 126.013L912.668 126.083L912.738 124.084L910.739 124.014L910.669 126.013ZM902.754 125.736L900.755 125.667L900.685 127.665L902.684 127.735L902.754 125.736ZM904.393 78.7949L906.392 78.8647L906.395 78.7712L906.39 78.6778L904.393 78.7949ZM904.186 75.2655L905.841 74.1426L901.765 68.1347L902.19 75.3826L904.186 75.2655ZM906.175 78.1968L904.52 79.3197L904.59 79.4225L904.672 79.5158L906.175 78.1968ZM960.373 139.966L958.869 141.285L962.195 145.076L962.371 140.036L960.373 139.966ZM962.81 70.1784L972.374 70.5124L972.513 66.5148L962.949 66.1808L962.81 70.1784ZM974.442 68.5834L974.746 59.8987L970.748 59.7591L970.445 68.4438L974.442 68.5834ZM972.817 57.8301L946.213 56.9011L946.073 60.8986L972.677 61.8277L972.817 57.8301ZM944.144 58.83L943.841 67.5148L947.839 67.6544L948.142 58.9696L944.144 58.83ZM945.77 69.5833L953.685 69.8597L953.825 65.8622L945.91 65.5858L945.77 69.5833ZM951.756 67.7912L950.075 115.942L954.072 116.081L955.754 67.9308L951.756 67.7912ZM950.077 116.129L950.284 119.658L954.277 119.424L954.07 115.895L950.077 116.129ZM953.935 118.418L951.946 115.487L948.637 117.733L950.625 120.664L953.935 118.418ZM951.807 115.305L900.717 55.9558L897.686 58.5654L948.776 117.915L951.807 115.305ZM899.271 55.2618L886.519 54.8165L886.38 58.8141L899.132 59.2594L899.271 55.2618ZM884.451 56.7455L884.147 65.4302L888.145 65.5698L888.448 56.8851L884.451 56.7455ZM886.076 67.4988L895.641 67.8328L895.78 63.8352L886.216 63.5012L886.076 67.4988ZM893.712 65.7642L891.631 125.348L895.628 125.487L897.709 65.9038L893.712 65.7642ZM893.699 123.419L884.135 123.085L883.996 127.082L893.56 127.416L893.699 123.419ZM882.067 125.014L881.763 133.699L885.761 133.838L886.064 125.153L882.067 125.014ZM883.692 135.767L910.296 136.696L910.436 132.699L883.832 131.77L883.692 135.767ZM912.365 134.767L912.668 126.083L908.67 125.943L908.367 134.628L912.365 134.767ZM910.739 124.014L902.824 123.738L902.684 127.735L910.599 128.012L910.739 124.014ZM904.753 125.806L906.392 78.8647L902.394 78.7251L900.755 125.667L904.753 125.806ZM906.39 78.6778L906.183 75.1485L902.19 75.3826L902.397 78.912L906.39 78.6778ZM902.531 76.3885L904.52 79.3197L907.83 77.0738L905.841 74.1426L902.531 76.3885ZM904.672 79.5158L958.869 141.285L961.876 138.647L907.679 76.8777L904.672 79.5158ZM962.371 140.036L964.878 68.2494L960.881 68.1098L958.374 139.896L962.371 140.036ZM1021.9 138.592L1021.83 140.591L1023.83 140.661L1023.9 138.662L1021.9 138.592ZM1022.2 129.908L1024.2 129.977L1024.27 127.979L1022.27 127.909L1022.2 129.908ZM1014.18 129.627L1012.18 129.558L1012.11 131.556L1014.11 131.626L1014.18 129.627ZM1016.26 70.0436L1016.33 68.0448L1014.33 67.975L1014.26 69.9738L1016.26 70.0436ZM1033.3 70.6387L1035.3 70.7085L1035.37 68.7097L1033.37 68.6399L1033.3 70.6387ZM1033.01 78.8836L1031.01 78.8138L1030.94 80.8126L1032.94 80.8824L1033.01 78.8836ZM1041.69 79.1869L1041.62 81.1857L1043.62 81.2555L1043.69 79.2567L1041.69 79.1869ZM1042.29 62.2572L1044.28 62.327L1044.35 60.3283L1042.36 60.2585L1042.29 62.2572ZM981.493 60.1343L981.563 58.1355L979.564 58.0657L979.494 60.0645L981.493 60.1343ZM980.902 77.064L978.903 76.9942L978.833 78.993L980.832 79.0628L980.902 77.064ZM989.587 77.3673L989.517 79.366L991.516 79.4358L991.585 77.4371L989.587 77.3673ZM989.874 69.1223L989.944 67.1235L987.945 67.0537L987.876 69.0525L989.874 69.1223ZM1007.13 69.725L1009.13 69.7948L1009.2 67.796L1007.2 67.7262L1007.13 69.725ZM1005.05 129.309L1004.98 131.307L1006.98 131.377L1007.05 129.378L1005.05 129.309ZM995.599 128.979L995.669 126.98L993.67 126.91L993.6 128.909L995.599 128.979ZM995.296 137.663L993.297 137.593L993.227 139.592L995.226 139.662L995.296 137.663ZM1023.9 138.662L1024.2 129.977L1020.2 129.838L1019.9 138.522L1023.9 138.662ZM1022.27 127.909L1014.25 127.629L1014.11 131.626L1022.13 131.906L1022.27 127.909ZM1016.18 129.697L1018.26 70.1134L1014.26 69.9738L1012.18 129.558L1016.18 129.697ZM1016.19 72.0424L1033.23 72.6374L1033.37 68.6399L1016.33 68.0448L1016.19 72.0424ZM1031.3 70.5689L1031.01 78.8138L1035.01 78.9534L1035.3 70.7085L1031.3 70.5689ZM1032.94 80.8824L1041.62 81.1857L1041.76 77.1881L1033.08 76.8849L1032.94 80.8824ZM1043.69 79.2567L1044.28 62.327L1040.29 62.1874L1039.7 79.1171L1043.69 79.2567ZM1042.36 60.2585L981.563 58.1355L981.423 62.1331L1042.22 64.256L1042.36 60.2585ZM979.494 60.0645L978.903 76.9942L982.901 77.1338L983.492 60.2041L979.494 60.0645ZM980.832 79.0628L989.517 79.366L989.656 75.3685L980.972 75.0652L980.832 79.0628ZM991.585 77.4371L991.873 69.1921L987.876 69.0525L987.588 77.2975L991.585 77.4371ZM989.805 71.1211L1007.06 71.7238L1007.2 67.7262L989.944 67.1235L989.805 71.1211ZM1005.14 69.6552L1003.05 129.239L1007.05 129.378L1009.13 69.7948L1005.14 69.6552ZM1005.12 127.31L995.669 126.98L995.529 130.977L1004.98 131.307L1005.12 127.31ZM993.6 128.909L993.297 137.593L997.295 137.733L997.598 129.048L993.6 128.909ZM995.226 139.662L1021.83 140.591L1021.97 136.593L995.366 135.664L995.226 139.662ZM1072.7 140.366L1072.63 142.365L1074.63 142.435L1074.7 140.436L1072.7 140.366ZM1073.01 131.682L1075.01 131.751L1075.08 129.753L1073.08 129.683L1073.01 131.682ZM1066.74 131.463L1064.93 130.618L1063.65 133.356L1066.67 133.462L1066.74 131.463ZM1071.74 120.741L1073.55 121.586L1073.55 121.586L1071.74 120.741ZM1076.74 110.019L1076.81 108.02L1075.48 107.974L1074.92 109.174L1076.74 110.019ZM1100.92 110.863L1102.79 110.154L1102.32 108.911L1100.99 108.864L1100.92 110.863ZM1105.05 121.904L1103.17 122.595L1103.18 122.611L1103.18 122.627L1105.05 121.904ZM1109.28 132.949L1109.22 134.947L1112.22 135.052L1111.15 132.239L1109.28 132.949ZM1103.13 132.734L1103.2 130.735L1101.2 130.665L1101.13 132.664L1103.13 132.734ZM1102.83 141.418L1100.83 141.348L1100.76 143.347L1102.76 143.417L1102.83 141.418ZM1127.23 142.271L1127.16 144.269L1129.16 144.339L1129.23 142.34L1127.23 142.271ZM1127.53 133.586L1129.53 133.656L1129.6 131.657L1127.6 131.587L1127.53 133.586ZM1118.52 133.271L1116.65 133.978L1117.12 135.223L1118.45 135.27L1118.52 133.271ZM1104.49 96.8992L1102.62 97.6183L1102.63 97.6252L1102.63 97.6322L1104.49 96.8992ZM1090.57 60.4214L1092.45 59.7146L1090.76 55.2406L1088.76 59.5858L1090.57 60.4214ZM1074.04 95.8358L1072.23 94.9789L1072.23 94.9843L1074.04 95.8358ZM1057.62 131.144L1057.55 133.143L1058.88 133.189L1059.43 131.98L1057.62 131.144ZM1048.6 130.829L1048.67 128.831L1046.67 128.761L1046.6 130.76L1048.6 130.829ZM1048.3 139.514L1046.3 139.444L1046.23 141.443L1048.23 141.513L1048.3 139.514ZM1088.53 84.2346L1090.32 85.1356L1090.37 85.0367L1090.41 84.9329L1088.53 84.2346ZM1088.9 83.1468L1087.09 82.2953L1087.04 82.41L1087 82.5306L1088.9 83.1468ZM1089.76 80.6452L1091.69 80.1323L1089.84 73.1367L1087.84 80.0927L1089.76 80.6452ZM1090.73 84.3114L1088.8 84.8242L1088.82 84.9254L1088.86 85.0232L1090.73 84.3114ZM1097.49 102.048L1097.42 104.047L1100.43 104.152L1099.36 101.336L1097.49 102.048ZM1080.78 101.464L1078.95 100.657L1077.75 103.36L1080.71 103.463L1080.78 101.464ZM1084.37 93.1147L1082.54 92.315L1082.53 92.3264L1082.53 92.338L1084.37 93.1147ZM1074.7 140.436L1075.01 131.751L1071.01 131.612L1070.7 140.297L1074.7 140.436ZM1073.08 129.683L1066.81 129.464L1066.67 133.462L1072.94 133.68L1073.08 129.683ZM1068.55 132.308C1070.77 127.542 1072.44 123.968 1073.55 121.586L1069.93 119.896C1068.81 122.279 1067.15 125.853 1064.93 130.618L1068.55 132.308ZM1073.55 121.586C1074.66 119.203 1076.33 115.629 1078.55 110.863L1074.92 109.174C1072.7 113.939 1071.04 117.513 1069.93 119.896L1073.55 121.586ZM1076.67 112.017L1100.85 112.862L1100.99 108.864L1076.81 108.02L1076.67 112.017ZM1099.05 111.573C1100.46 115.285 1101.83 118.959 1103.17 122.595L1106.92 121.213C1105.58 117.564 1104.2 113.878 1102.79 110.154L1099.05 111.573ZM1103.18 122.627C1104.59 126.267 1106.01 129.944 1107.41 133.658L1111.15 132.239C1109.74 128.516 1108.33 124.83 1106.91 121.181L1103.18 122.627ZM1109.35 130.95L1103.2 130.735L1103.06 134.732L1109.22 134.947L1109.35 130.95ZM1101.13 132.664L1100.83 141.348L1104.82 141.488L1105.13 132.803L1101.13 132.664ZM1102.76 143.417L1127.16 144.269L1127.3 140.272L1102.9 139.419L1102.76 143.417ZM1129.23 142.34L1129.53 133.656L1125.53 133.516L1125.23 142.201L1129.23 142.34ZM1127.6 131.587L1118.59 131.272L1118.45 135.27L1127.46 135.585L1127.6 131.587ZM1120.39 132.564C1115.75 120.286 1111.07 108.154 1106.35 96.1663L1102.63 97.6322C1107.34 109.602 1112.02 121.717 1116.65 133.978L1120.39 132.564ZM1106.36 96.1802C1101.72 84.135 1097.08 71.9798 1092.45 59.7146L1088.7 61.1281C1093.34 73.4014 1097.98 85.5648 1102.62 97.6183L1106.36 96.1802ZM1088.76 59.5858C1083.28 71.4948 1077.77 83.2925 1072.23 94.9789L1075.85 96.6927C1081.39 84.9919 1086.91 73.18 1092.39 61.2569L1088.76 59.5858ZM1072.23 94.9843C1066.76 106.613 1061.28 118.387 1055.8 130.309L1059.43 131.98C1064.91 120.069 1070.38 108.305 1075.85 96.6874L1072.23 94.9843ZM1057.69 129.145L1048.67 128.831L1048.53 132.828L1057.55 133.143L1057.69 129.145ZM1046.6 130.76L1046.3 139.444L1050.3 139.584L1050.6 130.899L1046.6 130.76ZM1048.23 141.513L1072.63 142.365L1072.77 138.368L1048.37 137.515L1048.23 141.513ZM1090.41 84.9329C1090.5 84.6712 1090.64 84.2724 1090.8 83.763L1087 82.5306C1086.83 83.0369 1086.72 83.3633 1086.66 83.5363L1090.41 84.9329ZM1090.71 83.9983C1091.02 83.3382 1091.34 82.3728 1091.68 81.1977L1087.84 80.0927C1087.51 81.2424 1087.26 81.9447 1087.09 82.2953L1090.71 83.9983ZM1087.83 81.1581L1088.8 84.8242L1092.66 83.7985L1091.69 80.1323L1087.83 81.1581ZM1088.86 85.0232L1095.62 102.76L1099.36 101.336L1092.6 83.5995L1088.86 85.0232ZM1097.56 100.049L1080.85 99.4656L1080.71 103.463L1097.42 104.047L1097.56 100.049ZM1082.61 102.272C1083.73 99.7305 1084.93 96.937 1086.21 93.8915L1082.53 92.338C1081.25 95.3668 1080.06 98.1398 1078.95 100.657L1082.61 102.272ZM1086.2 93.9145C1087.55 90.8382 1088.92 87.9121 1090.32 85.1356L1086.75 83.3336C1085.31 86.1815 1083.91 89.1755 1082.54 92.315L1086.2 93.9145ZM1179.03 144.079L1178.96 146.078L1180.96 146.148L1181.03 144.149L1179.03 144.079ZM1179.33 135.395L1181.33 135.464L1181.4 133.466L1179.4 133.396L1179.33 135.395ZM1171.31 135.114L1169.31 135.045L1169.24 137.043L1171.24 137.113L1171.31 135.114ZM1173.39 75.5307L1173.46 73.5319L1171.46 73.4621L1171.39 75.4609L1173.39 75.5307ZM1190.43 76.1257L1192.43 76.1955L1192.5 74.1967L1190.5 74.1269L1190.43 76.1257ZM1190.14 84.3707L1188.14 84.3009L1188.07 86.2997L1190.07 86.3695L1190.14 84.3707ZM1198.82 84.674L1198.75 86.6728L1200.75 86.7426L1200.82 84.7438L1198.82 84.674ZM1199.41 67.7443L1201.41 67.8141L1201.48 65.8153L1199.48 65.7455L1199.41 67.7443ZM1138.62 65.6214L1138.69 63.6226L1136.69 63.5528L1136.62 65.5516L1138.62 65.6214ZM1138.03 82.551L1136.03 82.4812L1135.96 84.48L1137.96 84.5498L1138.03 82.551ZM1146.72 82.8543L1146.65 84.8531L1148.64 84.9229L1148.71 82.9241L1146.72 82.8543ZM1147 74.6093L1147.07 72.6106L1145.07 72.5408L1145 74.5395L1147 74.6093ZM1164.26 75.2121L1166.26 75.2819L1166.33 73.2831L1164.33 73.2133L1164.26 75.2121ZM1162.18 134.796L1162.11 136.795L1164.11 136.864L1164.18 134.866L1162.18 134.796ZM1152.73 134.466L1152.8 132.467L1150.8 132.397L1150.73 134.396L1152.73 134.466ZM1152.42 143.15L1150.43 143.08L1150.36 145.079L1152.35 145.149L1152.42 143.15ZM1181.03 144.149L1181.33 135.464L1177.33 135.325L1177.03 144.01L1181.03 144.149ZM1179.4 133.396L1171.38 133.116L1171.24 137.113L1179.26 137.393L1179.4 133.396ZM1173.31 135.184L1175.39 75.6005L1171.39 75.4609L1169.31 135.045L1173.31 135.184ZM1173.32 77.5295L1190.36 78.1245L1190.5 74.1269L1173.46 73.5319L1173.32 77.5295ZM1188.43 76.0559L1188.14 84.3009L1192.14 84.4405L1192.43 76.1955L1188.43 76.0559ZM1190.07 86.3695L1198.75 86.6728L1198.89 82.6752L1190.21 82.3719L1190.07 86.3695ZM1200.82 84.7438L1201.41 67.8141L1197.42 67.6745L1196.82 84.6042L1200.82 84.7438ZM1199.48 65.7455L1138.69 63.6226L1138.55 67.6201L1199.35 69.7431L1199.48 65.7455ZM1136.62 65.5516L1136.03 82.4812L1140.03 82.6208L1140.62 65.6912L1136.62 65.5516ZM1137.96 84.5498L1146.65 84.8531L1146.79 80.8555L1138.1 80.5523L1137.96 84.5498ZM1148.71 82.9241L1149 74.6791L1145 74.5395L1144.72 82.7845L1148.71 82.9241ZM1146.93 76.6081L1164.19 77.2108L1164.33 73.2133L1147.07 72.6106L1146.93 76.6081ZM1162.26 75.1423L1160.18 134.726L1164.18 134.866L1166.26 75.2819L1162.26 75.1423ZM1162.25 132.797L1152.8 132.467L1152.66 136.464L1162.11 136.795L1162.25 132.797ZM1150.73 134.396L1150.43 143.08L1154.42 143.22L1154.73 134.535L1150.73 134.396ZM1152.35 145.149L1178.96 146.078L1179.1 142.081L1152.49 141.152L1152.35 145.149ZM1272.86 136.679L1271.51 135.203L1271.5 135.21L1271.49 135.217L1272.86 136.679ZM1281.76 124.553L1279.96 123.674L1279.95 123.686L1279.95 123.698L1281.76 124.553ZM1282.82 94.1012L1280.95 94.8176L1280.96 94.8348L1280.97 94.8518L1282.82 94.1012ZM1274.8 81.1633L1276.26 79.7993L1276.26 79.7993L1274.8 81.1633ZM1262.45 72.257L1261.57 74.0539L1261.59 74.062L1261.61 74.0698L1262.45 72.257ZM1232 71.1936L1232.73 73.0569L1232.74 73.0522L1232.75 73.0474L1232 71.1936ZM1219.28 79.2246L1220.65 80.6873L1220.65 80.6803L1220.66 80.6732L1219.28 79.2246ZM1210.38 91.5713L1212.18 92.4262L1212.19 92.4162L1210.38 91.5713ZM1209.31 122.023L1207.45 122.749L1207.45 122.749L1209.31 122.023ZM1217.34 134.741L1218.82 133.392L1218.81 133.377L1218.79 133.362L1217.34 134.741ZM1229.47 143.639L1230.32 141.831L1230.32 141.831L1229.47 143.639ZM1259.92 144.703L1259.2 142.835L1259.19 142.839L1259.92 144.703ZM1224.04 128.811L1225.52 127.467L1225.51 127.447L1225.49 127.428L1224.04 128.811ZM1217.78 119.017L1215.91 119.713L1215.92 119.735L1215.92 119.758L1217.78 119.017ZM1218.61 95.1611L1216.81 94.3053L1216.8 94.314L1216.8 94.3227L1218.61 95.1611ZM1225.55 85.6074L1226.92 87.0701L1226.93 87.061L1226.94 87.0518L1225.55 85.6074ZM1235.35 79.3454L1236.09 81.203L1236.09 81.203L1235.35 79.3454ZM1258.87 80.1669L1258 81.9683L1258 81.9683L1258.87 80.1669ZM1268.32 87.1007L1269.8 85.7563L1269.79 85.7465L1269.78 85.7367L1268.32 87.1007ZM1274.35 97.1074L1272.48 97.8039L1272.48 97.8263L1272.49 97.8485L1274.35 97.1074ZM1273.52 120.963L1271.71 120.107L1271.71 120.116L1271.7 120.125L1273.52 120.963ZM1266.81 130.304L1265.44 128.842L1265.44 128.842L1266.81 130.304ZM1256.9 136.563L1256.16 134.705L1256.16 134.705L1256.9 136.563ZM1233.38 135.741L1232.51 137.542L1232.51 137.542L1233.38 135.741ZM1274.21 138.156C1278.12 134.583 1281.24 130.327 1283.57 125.407L1279.95 123.698C1277.84 128.162 1275.03 131.991 1271.51 135.203L1274.21 138.156ZM1283.55 125.431C1285.97 120.479 1287.28 115.146 1287.48 109.453L1283.48 109.313C1283.3 114.468 1282.12 119.247 1279.96 123.674L1283.55 125.431ZM1287.48 109.453C1287.67 103.83 1286.74 98.4556 1284.67 93.3505L1280.97 94.8518C1282.82 99.4228 1283.66 104.237 1283.48 109.313L1287.48 109.453ZM1284.69 93.3848C1282.72 88.2447 1279.91 83.7102 1276.26 79.7993L1273.33 82.5273C1276.62 86.0494 1279.16 90.1402 1280.95 94.8176L1284.69 93.3848ZM1276.26 79.7993C1272.61 75.8883 1268.29 72.7699 1263.3 70.4442L1261.61 74.0698C1266.15 76.1861 1270.05 79.0051 1273.33 82.5273L1276.26 79.7993ZM1263.33 70.4601C1258.38 68.0418 1253.08 66.7367 1247.46 66.5404L1247.32 70.5379C1252.4 70.7152 1257.14 71.8887 1261.57 74.0539L1263.33 70.4601ZM1247.46 66.5404C1241.77 66.3416 1236.36 67.2712 1231.25 69.3398L1232.75 73.0474C1237.32 71.1979 1242.17 70.3579 1247.32 70.5379L1247.46 66.5404ZM1231.27 69.3303C1226.2 71.3074 1221.74 74.1227 1217.9 77.7761L1220.66 80.6732C1224.11 77.39 1228.13 74.8512 1232.73 73.0569L1231.27 69.3303ZM1217.92 77.7619C1214.01 81.4089 1210.89 85.7364 1208.56 90.7264L1212.19 92.4162C1214.3 87.8755 1217.12 83.9718 1220.65 80.6873L1217.92 77.7619ZM1208.57 90.7165C1206.23 95.6623 1204.96 100.952 1204.77 106.565L1208.77 106.704C1208.94 101.617 1210.08 96.8645 1212.18 92.4262L1208.57 90.7165ZM1204.77 106.565C1204.57 112.247 1205.46 117.649 1207.45 122.749L1211.18 121.296C1209.39 116.726 1208.59 111.868 1208.77 106.704L1204.77 106.565ZM1207.45 122.749C1209.43 127.819 1212.24 132.282 1215.89 136.12L1218.79 133.362C1215.51 129.913 1212.97 125.897 1211.18 121.296L1207.45 122.749ZM1215.87 136.09C1219.44 140.002 1223.7 143.122 1228.61 145.448L1230.32 141.831C1225.86 139.72 1222.03 136.908 1218.82 133.392L1215.87 136.09ZM1228.61 145.448C1233.56 147.788 1238.89 149.052 1244.57 149.25L1244.71 145.252C1239.55 145.072 1234.76 143.928 1230.32 141.831L1228.61 145.448ZM1244.57 149.25C1250.19 149.446 1255.55 148.554 1260.65 146.566L1259.19 142.839C1254.62 144.623 1249.8 145.43 1244.71 145.252L1244.57 149.25ZM1260.64 146.57C1265.78 144.598 1270.31 141.789 1274.22 138.142L1271.49 135.217C1267.97 138.501 1263.88 141.041 1259.2 142.836L1260.64 146.57ZM1225.49 127.428C1222.98 124.81 1221.03 121.765 1219.64 118.275L1215.92 119.758C1217.5 123.71 1219.73 127.194 1222.6 130.194L1225.49 127.428ZM1219.66 118.32C1218.34 114.786 1217.75 111.026 1217.89 107.023L1213.89 106.883C1213.74 111.382 1214.4 115.664 1215.91 119.713L1219.66 118.32ZM1217.89 107.023C1218.03 103.019 1218.88 99.3522 1220.43 95.9994L1216.8 94.3227C1215.01 98.1913 1214.05 102.386 1213.89 106.883L1217.89 107.023ZM1220.42 96.0169C1222.06 92.5562 1224.23 89.5796 1226.92 87.0701L1224.19 84.1447C1221.12 87.0106 1218.65 90.4031 1216.81 94.3053L1220.42 96.0169ZM1226.94 87.0518C1229.55 84.5446 1232.6 82.5951 1236.09 81.203L1234.61 77.4878C1230.65 79.0644 1227.17 81.2896 1224.17 84.163L1226.94 87.0518ZM1236.09 81.203C1239.54 79.8259 1243.21 79.1998 1247.12 79.3364L1247.26 75.3388C1242.82 75.1837 1238.6 75.8961 1234.61 77.4878L1236.09 81.203ZM1247.12 79.3364C1251.04 79.473 1254.66 80.3537 1258 81.9683L1259.74 78.3655C1255.87 76.4995 1251.71 75.494 1247.26 75.3388L1247.12 79.3364ZM1258 81.9683C1261.39 83.6027 1264.34 85.7669 1266.85 88.4647L1269.78 85.7367C1266.92 82.6701 1263.57 80.2117 1259.74 78.3655L1258 81.9683ZM1266.84 88.4451C1269.27 91.1284 1271.15 94.2418 1272.48 97.8039L1276.23 96.4109C1274.73 92.3901 1272.59 88.8324 1269.8 85.7563L1266.84 88.4451ZM1272.49 97.8485C1273.87 101.296 1274.5 105.004 1274.36 108.995L1278.35 109.134C1278.51 104.624 1277.8 100.36 1276.21 96.3663L1272.49 97.8485ZM1274.36 108.995C1274.22 112.986 1273.33 116.683 1271.71 120.107L1275.33 121.819C1277.19 117.88 1278.2 113.645 1278.35 109.134L1274.36 108.995ZM1271.7 120.125C1270.14 123.509 1268.05 126.408 1265.44 128.842L1268.17 131.767C1271.17 128.967 1273.56 125.639 1275.33 121.801L1271.7 120.125ZM1265.44 128.842C1262.75 131.357 1259.66 133.311 1256.16 134.705L1257.64 138.42C1261.59 136.845 1265.11 134.627 1268.17 131.767L1265.44 128.842ZM1256.16 134.705C1252.71 136.082 1249.04 136.708 1245.13 136.572L1244.99 140.569C1249.43 140.724 1253.65 140.012 1257.64 138.42L1256.16 134.705ZM1245.13 136.572C1241.21 136.435 1237.59 135.554 1234.25 133.94L1232.51 137.542C1236.38 139.408 1240.54 140.414 1244.99 140.569L1245.13 136.572ZM1234.25 133.94C1230.86 132.307 1227.96 130.15 1225.52 127.467L1222.56 130.155C1225.36 133.231 1228.68 135.694 1232.51 137.542L1234.25 133.94ZM1332.92 144.611L1334.18 146.17L1334.2 146.147L1334.23 146.123L1332.92 144.611ZM1338 137.964L1336.22 137.047L1336.21 137.067L1336.2 137.088L1338 137.964ZM1337.76 116.382L1339.5 115.389L1339.5 115.389L1337.76 116.382ZM1330.52 109.305L1329.6 111.078L1329.6 111.08L1330.52 109.305ZM1320.11 104.979L1319.47 106.874L1319.48 106.879L1319.5 106.885L1320.11 104.979ZM1310.78 100.911L1309.74 102.617L1309.77 102.632L1309.79 102.646L1310.78 100.911ZM1306.84 97.3613L1305.19 98.4908L1305.2 98.5123L1305.22 98.5333L1306.84 97.3613ZM1306.3 87.4366L1304.44 86.7104L1304.43 86.7391L1304.42 86.7682L1306.3 87.4366ZM1308.64 83.6657L1307.18 82.297L1307.17 82.3039L1308.64 83.6657ZM1312.69 81.0556L1313.38 82.932L1313.42 82.9188L1313.45 82.9041L1312.69 81.0556ZM1324.47 81.0267L1325 79.0994L1325 79.0994L1324.47 81.0267ZM1329.25 82.7346L1331.25 82.8044L1331.3 81.4773L1330.09 80.9196L1329.25 82.7346ZM1329.02 89.2207L1327.03 89.1509L1326.96 91.1497L1328.95 91.2195L1329.02 89.2207ZM1337.71 89.524L1337.64 91.5227L1339.64 91.5925L1339.71 89.5938L1337.71 89.524ZM1338.08 78.7505L1340.08 78.8203L1340.12 77.8841L1339.42 77.2597L1338.08 78.7505ZM1332.82 75.0446L1331.86 76.8011L1331.88 76.8088L1331.89 76.8163L1332.82 75.0446ZM1327.72 72.8853L1327.15 74.8018L1327.15 74.8018L1327.72 72.8853ZM1322.92 71.837L1322.66 73.8201L1322.66 73.8201L1322.92 71.837ZM1301.47 77.5821L1302.95 78.9314L1302.95 78.9314L1301.47 77.5821ZM1297.62 84.0514L1299.51 84.6978L1299.51 84.6978L1297.62 84.0514ZM1296.37 91.2724L1298.37 91.31L1298.37 91.2958L1298.37 91.2816L1296.37 91.2724ZM1298.75 101.922L1297.08 103.018L1297.09 103.034L1297.1 103.05L1298.75 101.922ZM1305.36 107.986L1306.36 106.251L1306.35 106.246L1306.34 106.24L1305.36 107.986ZM1313.82 111.584L1314.4 109.668L1314.4 109.668L1313.82 111.584ZM1322.3 114.742L1323.22 112.968L1323.18 112.945L1323.13 112.923L1322.3 114.742ZM1326.6 117.533L1325.33 119.079L1325.38 119.12L1325.44 119.158L1326.6 117.533ZM1329.89 121.28L1331.62 120.292L1331.62 120.288L1329.89 121.28ZM1330.87 124.727L1328.87 124.878L1328.88 124.932L1328.88 124.986L1330.87 124.727ZM1329.65 134.26L1327.9 133.304L1327.9 133.304L1329.65 134.26ZM1326.32 138.216L1327.45 139.867L1327.5 139.833L1327.55 139.796L1326.32 138.216ZM1321.51 140.47L1322 142.408L1322.04 142.399L1322.08 142.388L1321.51 140.47ZM1307.14 139.197L1306.3 141.015L1306.33 141.025L1306.35 141.035L1307.14 139.197ZM1300.46 135.112L1298.46 135.042L1298.42 136.026L1299.18 136.653L1300.46 135.112ZM1300.8 125.328L1302.8 125.397L1302.87 123.399L1300.87 123.329L1300.8 125.328ZM1292.11 125.024L1292.18 123.025L1290.18 122.956L1290.11 124.954L1292.11 125.024ZM1291.67 137.777L1289.67 137.707L1289.65 138.299L1289.95 138.807L1291.67 137.777ZM1295.48 142.092L1294.19 143.623L1294.21 143.636L1294.22 143.649L1295.48 142.092ZM1301.29 145.817L1302.2 144.036L1302.2 144.036L1301.29 145.817ZM1308.46 148.599L1307.91 150.521L1307.93 150.529L1307.96 150.535L1308.46 148.599ZM1325.41 148.641L1325.99 150.554L1326.01 150.548L1326.03 150.54L1325.41 148.641ZM1334.23 146.123C1336.56 144.106 1338.42 141.672 1339.8 138.839L1336.2 137.088C1335.05 139.45 1333.52 141.447 1331.61 143.098L1334.23 146.123ZM1339.78 138.88C1341.27 135.991 1342.05 132.749 1342.18 129.194L1338.18 129.054C1338.07 132.096 1337.41 134.747 1336.22 137.047L1339.78 138.88ZM1342.18 129.194C1342.37 123.639 1341.55 118.976 1339.5 115.389L1336.03 117.375C1337.57 120.078 1338.36 123.91 1338.18 129.054L1342.18 129.194ZM1339.5 115.389C1337.52 111.933 1334.84 109.292 1331.45 107.531L1329.6 111.08C1332.27 112.465 1334.41 114.542 1336.03 117.375L1339.5 115.389ZM1331.45 107.532C1328.03 105.748 1324.45 104.262 1320.71 103.073L1319.5 106.885C1323.02 108.005 1326.39 109.403 1329.6 111.078L1331.45 107.532ZM1320.75 103.085C1317.21 101.888 1314.23 100.581 1311.78 99.1761L1309.79 102.646C1312.52 104.21 1315.75 105.616 1319.47 106.874L1320.75 103.085ZM1311.83 99.2055C1310.37 98.3103 1309.26 97.2988 1308.46 96.1893L1305.22 98.5333C1306.37 100.134 1307.9 101.489 1309.74 102.617L1311.83 99.2055ZM1308.49 96.2318C1307.81 95.2412 1307.42 93.8791 1307.48 91.9906L1303.49 91.851C1303.4 94.3598 1303.91 96.6247 1305.19 98.4908L1308.49 96.2318ZM1307.48 91.9906C1307.53 90.5614 1307.77 89.2707 1308.19 88.1051L1304.42 86.7682C1303.85 88.3568 1303.55 90.0556 1303.49 91.851L1307.48 91.9906ZM1308.17 88.1628C1308.64 86.934 1309.29 85.8966 1310.1 85.0275L1307.17 82.3039C1306 83.567 1305.09 85.0435 1304.44 86.7104L1308.17 88.1628ZM1310.09 85.0345C1310.92 84.1496 1312 83.4407 1313.38 82.932L1312 79.1792C1310.1 79.8772 1308.48 80.9083 1307.18 82.297L1310.09 85.0345ZM1313.45 82.9041C1314.77 82.3595 1316.39 82.0855 1318.37 82.1547L1318.51 78.1571C1316.1 78.0727 1313.88 78.3985 1311.93 79.2071L1313.45 82.9041ZM1318.37 82.1547C1320.44 82.2269 1322.29 82.4985 1323.93 82.954L1325 79.0994C1323.01 78.5474 1320.84 78.2385 1318.51 78.1571L1318.37 82.1547ZM1323.93 82.954C1325.67 83.4354 1327.16 83.9699 1328.41 84.5497L1330.09 80.9196C1328.6 80.2294 1326.9 79.6253 1325 79.0994L1323.93 82.954ZM1327.25 82.6648L1327.03 89.1509L1331.02 89.2905L1331.25 82.8044L1327.25 82.6648ZM1328.95 91.2195L1337.64 91.5227L1337.78 87.5252L1329.09 87.2219L1328.95 91.2195ZM1339.71 89.5938L1340.08 78.8203L1336.09 78.6807L1335.71 89.4542L1339.71 89.5938ZM1339.42 77.2597C1337.6 75.6361 1335.71 74.3018 1333.75 73.2728L1331.89 76.8163C1333.53 77.6742 1335.15 78.8105 1336.75 80.2413L1339.42 77.2597ZM1333.78 73.288C1331.94 72.289 1330.11 71.512 1328.3 70.9689L1327.15 74.8018C1328.67 75.2559 1330.24 75.9184 1331.86 76.8011L1333.78 73.288ZM1328.3 70.9689C1326.54 70.4435 1324.83 70.0696 1323.18 69.8538L1322.66 73.8201C1324.07 74.005 1325.57 74.33 1327.15 74.8018L1328.3 70.9689ZM1323.18 69.8538C1321.59 69.6466 1320.1 69.5172 1318.71 69.4686L1318.57 73.4661C1319.81 73.5097 1321.18 73.6266 1322.66 73.8201L1323.18 69.8538ZM1318.71 69.4686C1314.48 69.321 1310.75 69.8434 1307.6 71.1262L1309.1 74.8322C1311.6 73.8177 1314.73 73.3322 1318.57 73.4661L1318.71 69.4686ZM1307.6 71.1262C1304.54 72.3675 1301.98 74.0582 1300 76.2328L1302.95 78.9314C1304.47 77.2661 1306.5 75.8882 1309.1 74.8322L1307.6 71.1262ZM1300 76.2328C1298.06 78.3499 1296.63 80.744 1295.72 83.4049L1299.51 84.6978C1300.23 82.5729 1301.38 80.6541 1302.95 78.9314L1300 76.2328ZM1295.72 83.4049C1294.84 85.9938 1294.38 88.6158 1294.37 91.2632L1298.37 91.2816C1298.38 89.0869 1298.76 86.8948 1299.51 84.6978L1295.72 83.4049ZM1294.37 91.2348C1294.28 95.9976 1295.1 100 1297.08 103.018L1300.43 100.826C1299.06 98.737 1298.29 95.6402 1298.37 91.31L1294.37 91.2348ZM1297.1 103.05C1299.02 105.857 1301.45 108.092 1304.39 109.733L1306.34 106.24C1303.95 104.906 1301.98 103.098 1300.4 100.794L1297.1 103.05ZM1304.37 109.722C1307.1 111.287 1310.06 112.545 1313.25 113.5L1314.4 109.668C1311.49 108.795 1308.81 107.655 1306.36 106.251L1304.37 109.722ZM1313.25 113.5C1316.22 114.39 1318.96 115.411 1321.47 116.56L1323.13 112.923C1320.44 111.689 1317.53 110.605 1314.4 109.668L1313.25 113.5ZM1321.37 116.515C1322.93 117.328 1324.25 118.185 1325.33 119.079L1327.87 115.988C1326.54 114.89 1324.98 113.886 1323.22 112.968L1321.37 116.515ZM1325.44 119.158C1326.46 119.894 1327.37 120.914 1328.15 122.273L1331.62 120.288C1330.6 118.502 1329.32 117.024 1327.77 115.909L1325.44 119.158ZM1328.15 122.268C1328.53 122.941 1328.79 123.794 1328.87 124.878L1332.86 124.575C1332.74 123.011 1332.35 121.566 1331.62 120.292L1328.15 122.268ZM1328.88 124.986C1329.04 126.205 1329.1 127.418 1329.06 128.626L1333.06 128.765C1333.11 127.335 1333.04 125.901 1332.85 124.467L1328.88 124.986ZM1329.06 128.626C1328.99 130.496 1328.59 132.037 1327.9 133.304L1331.41 135.216C1332.44 133.315 1332.97 131.146 1333.06 128.765L1329.06 128.626ZM1327.9 133.304C1327.16 134.658 1326.23 135.76 1325.1 136.636L1327.55 139.796C1329.13 138.566 1330.42 137.031 1331.41 135.216L1327.9 133.304ZM1325.19 136.566C1323.95 137.417 1322.54 138.081 1320.95 138.551L1322.08 142.388C1324.04 141.808 1325.84 140.971 1327.45 139.867L1325.19 136.566ZM1321.02 138.531C1319.43 138.934 1317.78 139.109 1316.06 139.048L1315.92 143.046C1318 143.119 1320.04 142.908 1322 142.408L1321.02 138.531ZM1316.06 139.048C1312.97 138.941 1310.27 138.365 1307.93 137.36L1306.35 141.035C1309.21 142.266 1312.41 142.924 1315.92 143.046L1316.06 139.048ZM1307.97 137.379C1305.5 136.247 1303.43 134.973 1301.73 133.57L1299.18 136.653C1301.19 138.315 1303.57 139.765 1306.3 141.015L1307.97 137.379ZM1302.45 135.181L1302.8 125.397L1298.8 125.258L1298.46 135.042L1302.45 135.181ZM1300.87 123.329L1292.18 123.025L1292.04 127.023L1300.73 127.326L1300.87 123.329ZM1290.11 124.954L1289.67 137.707L1293.67 137.846L1294.11 125.094L1290.11 124.954ZM1289.95 138.807C1290.99 140.533 1292.42 142.134 1294.19 143.623L1296.77 140.561C1295.26 139.294 1294.15 138.019 1293.38 136.746L1289.95 138.807ZM1294.22 143.649C1296.05 145.125 1298.11 146.44 1300.38 147.599L1302.2 144.036C1300.15 142.989 1298.33 141.821 1296.73 140.535L1294.22 143.649ZM1300.38 147.599C1302.67 148.766 1305.18 149.738 1307.91 150.521L1309.01 146.677C1306.5 145.956 1304.24 145.074 1302.2 144.036L1300.38 147.599ZM1307.96 150.535C1310.72 151.251 1313.57 151.659 1316.49 151.761L1316.63 147.764C1313.99 147.672 1311.43 147.304 1308.96 146.663L1307.96 150.535ZM1316.49 151.761C1319.78 151.876 1322.95 151.477 1325.99 150.554L1324.83 146.727C1322.23 147.516 1319.5 147.864 1316.63 147.764L1316.49 151.761ZM1326.03 150.54C1329.07 149.541 1331.79 148.086 1334.18 146.17L1331.67 143.051C1329.68 144.651 1327.39 145.883 1324.78 146.741L1326.03 150.54Z" fill="#272221"/>
</svg>
